ISO-10303-21;
HEADER;
FILE_DESCRIPTION(('FreeCAD Model'),'2;1');
FILE_NAME('Open CASCADE Shape Model','2026-06-05T14:56:50',('Author'),(
    ''),'Open CASCADE STEP processor 7.8','FreeCAD','Unknown');
FILE_SCHEMA(('AUTOMOTIVE_DESIGN { 1 0 10303 214 1 1 1 1 }'));
ENDSEC;
DATA;
#1 = APPLICATION_PROTOCOL_DEFINITION('international standard',
  'automotive_design',2000,#2);
#2 = APPLICATION_CONTEXT(
  'core data for automotive mechanical design processes');
#3 = SHAPE_DEFINITION_REPRESENTATION(#4,#10);
#4 = PRODUCT_DEFINITION_SHAPE('','',#5);
#5 = PRODUCT_DEFINITION('design','',#6,#9);
#6 = PRODUCT_DEFINITION_FORMATION('','',#7);
#7 = PRODUCT('InvoluteGear','InvoluteGear','',(#8));
#8 = PRODUCT_CONTEXT('',#2,'mechanical');
#9 = PRODUCT_DEFINITION_CONTEXT('part definition',#2,'design');
#10 = GEOMETRICALLY_BOUNDED_WIREFRAME_SHAPE_REPRESENTATION('',(#11,#15),
  #1186);
#11 = AXIS2_PLACEMENT_3D('',#12,#13,#14);
#12 = CARTESIAN_POINT('',(0.,0.,0.));
#13 = DIRECTION('',(0.,0.,1.));
#14 = DIRECTION('',(1.,0.,-0.));
#15 = GEOMETRIC_CURVE_SET('',(#16,#23,#31,#39,#47,#55,#63,#70,#78,#86,
    #94,#101,#109,#117,#125,#133,#141,#148,#156,#164,#172,#179,#187,#195
    ,#203,#211,#219,#226,#234,#242,#250,#257,#265,#273,#281,#289,#297,
    #304,#312,#320,#328,#335,#343,#351,#359,#367,#375,#382,#390,#398,
    #406,#413,#421,#429,#437,#445,#453,#460,#468,#476,#484,#491,#499,
    #507,#515,#523,#531,#538,#546,#554,#562,#569,#577,#585,#593,#601,
    #609,#616,#624,#632,#640,#647,#655,#663,#671,#679,#687,#694,#702,
    #710,#718,#725,#733,#741,#749,#757,#765,#772,#780,#788,#796,#803,
    #811,#819,#827,#835,#843,#850,#858,#866,#874,#881,#889,#897,#905,
    #913,#921,#928,#936,#944,#952,#959,#967,#975,#983,#991,#999,#1006,
    #1014,#1022,#1030,#1037,#1045,#1053,#1061,#1069,#1077,#1084,#1092,
    #1100,#1108,#1115,#1123,#1131,#1139,#1147,#1155,#1162,#1170,#1178));
#16 = TRIMMED_CURVE('',#17,(#21,PARAMETER_VALUE(0.)),(#22,
    PARAMETER_VALUE(0.260590870588)),.T.,.PARAMETER.);
#17 = LINE('',#18,#19);
#18 = CARTESIAN_POINT('',(3.949571465167,-0.474730704231,0.));
#19 = VECTOR('',#20,1.);
#20 = DIRECTION('',(0.993065143463,-0.11756538963,0.));
#21 = CARTESIAN_POINT('',(3.949571465167,-0.474730704231,0.));
#22 = CARTESIAN_POINT('',(4.208355175452,-0.505367171466,0.));
#23 = TRIMMED_CURVE('',#24,(#29,PARAMETER_VALUE(0.)),(#30,
    PARAMETER_VALUE(1.)),.T.,.PARAMETER.);
#24 = B_SPLINE_CURVE_WITH_KNOTS('',3,(#25,#26,#27,#28),.UNSPECIFIED.,.F.
  ,.F.,(4,4),(0.,1.),.PIECEWISE_BEZIER_KNOTS.);
#25 = CARTESIAN_POINT('',(4.208355175452,-0.505367171466,0.));
#26 = CARTESIAN_POINT('',(4.234428529422,-0.506706522253,0.));
#27 = CARTESIAN_POINT('',(4.312805199625,-0.507210079417,0.));
#28 = CARTESIAN_POINT('',(4.444016403316,-0.477917840098,0.));
#29 = CARTESIAN_POINT('',(4.208355175452,-0.505367171466,0.));
#30 = CARTESIAN_POINT('',(4.444016403316,-0.477917840098,0.));
#31 = TRIMMED_CURVE('',#32,(#37,PARAMETER_VALUE(0.)),(#38,
    PARAMETER_VALUE(1.)),.T.,.PARAMETER.);
#32 = B_SPLINE_CURVE_WITH_KNOTS('',3,(#33,#34,#35,#36),.UNSPECIFIED.,.F.
  ,.F.,(4,4),(0.,1.),.PIECEWISE_BEZIER_KNOTS.);
#33 = CARTESIAN_POINT('',(4.444016403316,-0.477917840098,0.));
#34 = CARTESIAN_POINT('',(4.600592314281,-0.442254594627,0.));
#35 = CARTESIAN_POINT('',(4.824704137826,-0.364469131408,0.));
#36 = CARTESIAN_POINT('',(5.096943518536,-0.196570775828,0.));
#37 = CARTESIAN_POINT('',(4.444016403316,-0.477917840098,0.));
#38 = CARTESIAN_POINT('',(5.096943518536,-0.196570775828,0.));
#39 = TRIMMED_CURVE('',#40,(#45,PARAMETER_VALUE(0.)),(#46,
    PARAMETER_VALUE(7.716430428153E-02)),.T.,.PARAMETER.);
#40 = CIRCLE('',#41,5.100000000001);
#41 = AXIS2_PLACEMENT_3D('',#42,#43,#44);
#42 = CARTESIAN_POINT('',(3.757241054148E-04,-9.496681465182E-03,0.));
#43 = DIRECTION('',(0.,-0.,1.));
#44 = DIRECTION('',(0.999327018516,-3.668119497301E-02,-0.));
#45 = CARTESIAN_POINT('',(5.096943518536,-0.196570775828,0.));
#46 = CARTESIAN_POINT('',(5.096198844108,0.196868842927,0.));
#47 = TRIMMED_CURVE('',#48,(#53,PARAMETER_VALUE(0.)),(#54,
    PARAMETER_VALUE(1.)),.T.,.PARAMETER.);
#48 = B_SPLINE_CURVE_WITH_KNOTS('',3,(#49,#50,#51,#52),.UNSPECIFIED.,.F.
  ,.F.,(4,4),(0.,1.),.PIECEWISE_BEZIER_KNOTS.);
#49 = CARTESIAN_POINT('',(5.096198844108,0.196868842927,0.));
#50 = CARTESIAN_POINT('',(4.824704137826,0.364469131408,0.));
#51 = CARTESIAN_POINT('',(4.600592314281,0.442254594627,0.));
#52 = CARTESIAN_POINT('',(4.444016403316,0.477917840098,0.));
#53 = CARTESIAN_POINT('',(5.096198844108,0.196868842927,0.));
#54 = CARTESIAN_POINT('',(4.444016403316,0.477917840098,0.));
#55 = TRIMMED_CURVE('',#56,(#61,PARAMETER_VALUE(0.)),(#62,
    PARAMETER_VALUE(1.)),.T.,.PARAMETER.);
#56 = B_SPLINE_CURVE_WITH_KNOTS('',3,(#57,#58,#59,#60),.UNSPECIFIED.,.F.
  ,.F.,(4,4),(0.,1.),.PIECEWISE_BEZIER_KNOTS.);
#57 = CARTESIAN_POINT('',(4.444016403316,0.477917840098,0.));
#58 = CARTESIAN_POINT('',(4.312805199625,0.507210079417,0.));
#59 = CARTESIAN_POINT('',(4.234428529422,0.506706522253,0.));
#60 = CARTESIAN_POINT('',(4.208355175452,0.505367171466,0.));
#61 = CARTESIAN_POINT('',(4.444016403316,0.477917840098,0.));
#62 = CARTESIAN_POINT('',(4.208355175452,0.505367171466,0.));
#63 = TRIMMED_CURVE('',#64,(#68,PARAMETER_VALUE(0.)),(#69,
    PARAMETER_VALUE(0.260590870588)),.T.,.PARAMETER.);
#64 = LINE('',#65,#66);
#65 = CARTESIAN_POINT('',(4.208355175452,0.505367171466,0.));
#66 = VECTOR('',#67,1.);
#67 = DIRECTION('',(-0.993065143463,-0.11756538963,0.));
#68 = CARTESIAN_POINT('',(4.208355175452,0.505367171466,0.));
#69 = CARTESIAN_POINT('',(3.949571465167,0.474730704231,0.));
#70 = TRIMMED_CURVE('',#71,(#76,PARAMETER_VALUE(0.)),(#77,
    PARAMETER_VALUE(1.540976177951)),.T.,.PARAMETER.);
#71 = CIRCLE('',#72,0.228);
#72 = AXIS2_PLACEMENT_3D('',#73,#74,#75);
#73 = CARTESIAN_POINT('',(3.915885936018,0.700228564811,0.));
#74 = DIRECTION('',(0.,0.,-1.));
#75 = DIRECTION('',(0.1477435489,-0.989025704296,0.));
#76 = CARTESIAN_POINT('',(3.949571465167,0.474730704231,0.));
#77 = CARTESIAN_POINT('',(3.691492687636,0.659834628622,0.));
#78 = TRIMMED_CURVE('',#79,(#84,PARAMETER_VALUE(0.)),(#85,
    PARAMETER_VALUE(6.512554984447E-02)),.T.,.PARAMETER.);
#79 = CIRCLE('',#80,3.75);
#80 = AXIS2_PLACEMENT_3D('',#81,#82,#83);
#81 = CARTESIAN_POINT('',(2.589040093426E-13,5.695444116327E-14,0.));
#82 = DIRECTION('',(0.,0.,1.));
#83 = DIRECTION('',(0.984398050036,0.175955900966,-0.));
#84 = CARTESIAN_POINT('',(3.691492687636,0.659834628622,0.));
#85 = CARTESIAN_POINT('',(3.640725298542,0.898676415935,0.));
#86 = TRIMMED_CURVE('',#87,(#92,PARAMETER_VALUE(0.)),(#93,
    PARAMETER_VALUE(1.540976177951)),.T.,.PARAMETER.);
#87 = CIRCLE('',#88,0.228);
#88 = AXIS2_PLACEMENT_3D('',#89,#90,#91);
#89 = CARTESIAN_POINT('',(3.862148425332,0.953043675589,0.));
#90 = DIRECTION('',(0.,0.,-1.));
#91 = DIRECTION('',(-0.971154064871,-0.238452893218,-0.));
#92 = CARTESIAN_POINT('',(3.640725298542,0.898676415935,0.));
#93 = CARTESIAN_POINT('',(3.801203444642,1.172747360876,0.));
#94 = TRIMMED_CURVE('',#95,(#99,PARAMETER_VALUE(0.)),(#100,
    PARAMETER_VALUE(0.260590870588)),.T.,.PARAMETER.);
#95 = LINE('',#96,#97);
#96 = CARTESIAN_POINT('',(3.801203444642,1.172747360876,0.));
#97 = VECTOR('',#98,1.);
#98 = DIRECTION('',(0.955028302874,0.296514655135,0.));
#99 = CARTESIAN_POINT('',(3.801203444642,1.172747360876,0.));
#100 = CARTESIAN_POINT('',(4.050075101524,1.250016373,0.));
#101 = TRIMMED_CURVE('',#102,(#107,PARAMETER_VALUE(0.)),(#108,
    PARAMETER_VALUE(1.)),.T.,.PARAMETER.);
#102 = B_SPLINE_CURVE_WITH_KNOTS('',3,(#103,#104,#105,#106),
  .UNSPECIFIED.,.F.,.F.,(4,4),(0.,1.),.PIECEWISE_BEZIER_KNOTS.);
#103 = CARTESIAN_POINT('',(4.050075101524,1.250016373,0.));
#104 = CARTESIAN_POINT('',(4.074439058651,1.259397803639,0.));
#105 = CARTESIAN_POINT('',(4.146244524851,1.290816445013,0.));
#106 = CARTESIAN_POINT('',(4.254197696886,1.370944641711,0.));
#107 = CARTESIAN_POINT('',(4.050075101524,1.250016373,0.));
#108 = CARTESIAN_POINT('',(4.254197696886,1.370944641711,0.));
#109 = TRIMMED_CURVE('',#110,(#115,PARAMETER_VALUE(0.)),(#116,
    PARAMETER_VALUE(1.)),.T.,.PARAMETER.);
#110 = B_SPLINE_CURVE_WITH_KNOTS('',3,(#111,#112,#113,#114),
  .UNSPECIFIED.,.F.,.F.,(4,4),(0.,1.),.PIECEWISE_BEZIER_KNOTS.);
#111 = CARTESIAN_POINT('',(4.254197696886,1.370944641711,0.));
#112 = CARTESIAN_POINT('',(4.38273136038,1.467209798028,0.));
#113 = CARTESIAN_POINT('',(4.555829500594,1.629424845404,0.));
#114 = CARTESIAN_POINT('',(4.736242136706,1.893537357314,0.));
#115 = CARTESIAN_POINT('',(4.254197696886,1.370944641711,0.));
#116 = CARTESIAN_POINT('',(4.736242136706,1.893537357314,0.));
#117 = TRIMMED_CURVE('',#118,(#123,PARAMETER_VALUE(0.)),(#124,
    PARAMETER_VALUE(7.716430428154E-02)),.T.,.PARAMETER.);
#118 = CIRCLE('',#119,5.1);
#119 = AXIS2_PLACEMENT_3D('',#120,#121,#122);
#120 = CARTESIAN_POINT('',(4.205889389912E-03,-8.522829453588E-03,0.));
#121 = DIRECTION('',(0.,0.,1.));
#122 = DIRECTION('',(0.927850244572,0.372952977797,-0.));
#123 = CARTESIAN_POINT('',(4.736242136706,1.893537357314,0.));
#124 = CARTESIAN_POINT('',(4.57553553298,2.252659447506,0.));
#125 = TRIMMED_CURVE('',#126,(#131,PARAMETER_VALUE(0.)),(#132,
    PARAMETER_VALUE(1.)),.T.,.PARAMETER.);
#126 = B_SPLINE_CURVE_WITH_KNOTS('',3,(#127,#128,#129,#130),
  .UNSPECIFIED.,.F.,.F.,(4,4),(0.,1.),.PIECEWISE_BEZIER_KNOTS.);
#127 = CARTESIAN_POINT('',(4.57553553298,2.252659447506,0.));
#128 = CARTESIAN_POINT('',(4.259343598567,2.295343084302,0.));
#129 = CARTESIAN_POINT('',(4.022969061973,2.275249150114,0.));
#130 = CARTESIAN_POINT('',(3.865424300991,2.244143985606,0.));
#131 = CARTESIAN_POINT('',(4.57553553298,2.252659447506,0.));
#132 = CARTESIAN_POINT('',(3.865424300991,2.244143985606,0.));
#133 = TRIMMED_CURVE('',#134,(#139,PARAMETER_VALUE(0.)),(#140,
    PARAMETER_VALUE(1.)),.T.,.PARAMETER.);
#134 = B_SPLINE_CURVE_WITH_KNOTS('',3,(#135,#136,#137,#138),
  .UNSPECIFIED.,.F.,.F.,(4,4),(0.,1.),.PIECEWISE_BEZIER_KNOTS.);
#135 = CARTESIAN_POINT('',(3.865424300991,2.244143985606,0.));
#136 = CARTESIAN_POINT('',(3.733642674778,2.217535373257,0.));
#137 = CARTESIAN_POINT('',(3.66224683888,2.185196687164,0.));
#138 = CARTESIAN_POINT('',(3.638972407838,2.173368140869,0.));
#139 = CARTESIAN_POINT('',(3.865424300991,2.244143985606,0.));
#140 = CARTESIAN_POINT('',(3.638972407838,2.173368140869,0.));
#141 = TRIMMED_CURVE('',#142,(#146,PARAMETER_VALUE(0.)),(#147,
    PARAMETER_VALUE(0.260590870588)),.T.,.PARAMETER.);
#142 = LINE('',#143,#144);
#143 = CARTESIAN_POINT('',(3.638972407838,2.173368140869,0.));
#144 = VECTOR('',#145,1.);
#145 = DIRECTION('',(-0.859391999034,-0.51131731048,0.));
#146 = CARTESIAN_POINT('',(3.638972407838,2.173368140869,0.));
#147 = CARTESIAN_POINT('',(3.415022698634,2.040123517784,0.));
#148 = TRIMMED_CURVE('',#149,(#154,PARAMETER_VALUE(0.)),(#155,
    PARAMETER_VALUE(1.540976177951)),.T.,.PARAMETER.);
#149 = CIRCLE('',#150,0.228);
#150 = AXIS2_PLACEMENT_3D('',#151,#152,#153);
#151 = CARTESIAN_POINT('',(3.292531193658,2.232424924978,0.));
#152 = DIRECTION('',(-0.,0.,-1.));
#153 = DIRECTION('',(0.537243442875,-0.843427224536,-0.));
#154 = CARTESIAN_POINT('',(3.415022698634,2.040123517784,0.));
#155 = CARTESIAN_POINT('',(3.10396745488,2.104254271481,0.));
#156 = TRIMMED_CURVE('',#157,(#162,PARAMETER_VALUE(0.)),(#163,
    PARAMETER_VALUE(6.512554984446E-02)),.T.,.PARAMETER.);
#157 = CIRCLE('',#158,3.75);
#158 = AXIS2_PLACEMENT_3D('',#159,#160,#161);
#159 = CARTESIAN_POINT('',(1.267874694122E-13,9.348077867344E-14,0.));
#160 = DIRECTION('',(0.,0.,1.));
#161 = DIRECTION('',(0.827724654635,0.561134472395,-0.));
#162 = CARTESIAN_POINT('',(3.10396745488,2.104254271481,0.));
#163 = CARTESIAN_POINT('',(2.960443430378,2.301798143958,0.));
#164 = TRIMMED_CURVE('',#165,(#170,PARAMETER_VALUE(0.)),(#171,
    PARAMETER_VALUE(1.540976177951)),.T.,.PARAMETER.);
#165 = CIRCLE('',#166,0.228);
#166 = AXIS2_PLACEMENT_3D('',#167,#168,#169);
#167 = CARTESIAN_POINT('',(3.14061036539,2.441526006349,0.));
#168 = DIRECTION('',(0.,0.,-1.));
#169 = DIRECTION('',(-0.790205855315,-0.612841501716,-0.));
#170 = CARTESIAN_POINT('',(2.960443430378,2.301798143958,0.));
#171 = CARTESIAN_POINT('',(2.99557281569,2.617446753212,0.));
#172 = TRIMMED_CURVE('',#173,(#177,PARAMETER_VALUE(0.)),(#178,
    PARAMETER_VALUE(0.260590870588)),.T.,.PARAMETER.);
#173 = LINE('',#174,#175);
#174 = CARTESIAN_POINT('',(2.99557281569,2.617446753212,0.));
#175 = VECTOR('',#176,1.);
#176 = DIRECTION('',(0.751858392558,0.659324622276,0.));
#177 = CARTESIAN_POINT('',(2.99557281569,2.617446753212,0.));
#178 = CARTESIAN_POINT('',(3.191500248765,2.789260730532,0.));
#179 = TRIMMED_CURVE('',#180,(#185,PARAMETER_VALUE(0.)),(#186,
    PARAMETER_VALUE(1.)),.T.,.PARAMETER.);
#180 = B_SPLINE_CURVE_WITH_KNOTS('',3,(#181,#182,#183,#184),
  .UNSPECIFIED.,.F.,.F.,(4,4),(0.,1.),.PIECEWISE_BEZIER_KNOTS.);
#181 = CARTESIAN_POINT('',(3.191500248765,2.789260730532,0.));
#182 = CARTESIAN_POINT('',(3.209942059523,2.807740808013,0.));
#183 = CARTESIAN_POINT('',(3.262760504281,2.865649079401,0.));
#184 = CARTESIAN_POINT('',(3.328789560491,2.982758340327,0.));
#185 = CARTESIAN_POINT('',(3.191500248765,2.789260730532,0.));
#186 = CARTESIAN_POINT('',(3.328789560491,2.982758340327,0.));
#187 = TRIMMED_CURVE('',#188,(#193,PARAMETER_VALUE(0.)),(#194,
    PARAMETER_VALUE(1.)),.T.,.PARAMETER.);
#188 = B_SPLINE_CURVE_WITH_KNOTS('',3,(#189,#190,#191,#192),
  .UNSPECIFIED.,.F.,.F.,(4,4),(0.,1.),.PIECEWISE_BEZIER_KNOTS.);
#189 = CARTESIAN_POINT('',(3.328789560491,2.982758340327,0.));
#190 = CARTESIAN_POINT('',(3.407056338406,3.122980287421,0.));
#191 = CARTESIAN_POINT('',(3.499210554298,3.341576463586,0.));
#192 = CARTESIAN_POINT('',(3.556601462031,3.656235679129,0.));
#193 = CARTESIAN_POINT('',(3.328789560491,2.982758340327,0.));
#194 = CARTESIAN_POINT('',(3.556601462031,3.656235679129,0.));
#195 = TRIMMED_CURVE('',#196,(#201,PARAMETER_VALUE(0.)),(#202,
    PARAMETER_VALUE(7.716430428152E-02)),.T.,.PARAMETER.);
#196 = CIRCLE('',#197,5.100000000002);
#197 = AXIS2_PLACEMENT_3D('',#198,#199,#200);
#198 = CARTESIAN_POINT('',(7.308818187936E-03,-6.075302803121E-03,0.));
#199 = DIRECTION('',(0.,0.,1.));
#200 = DIRECTION('',(0.695939734087,0.718100192535,-0.));
#201 = CARTESIAN_POINT('',(3.556601462031,3.656235679129,0.));
#202 = CARTESIAN_POINT('',(3.263720560764,3.918944768843,0.));
#203 = TRIMMED_CURVE('',#204,(#209,PARAMETER_VALUE(0.)),(#210,
    PARAMETER_VALUE(1.)),.T.,.PARAMETER.);
#204 = B_SPLINE_CURVE_WITH_KNOTS('',3,(#205,#206,#207,#208),
  .UNSPECIFIED.,.F.,.F.,(4,4),(0.,1.),.PIECEWISE_BEZIER_KNOTS.);
#205 = CARTESIAN_POINT('',(3.263720560764,3.918944768843,0.));
#206 = CARTESIAN_POINT('',(2.957503856193,3.829331365383,0.));
#207 = CARTESIAN_POINT('',(2.749737911324,3.714832457557,0.));
#208 = CARTESIAN_POINT('',(2.618465220748,3.622337248595,0.));
#209 = CARTESIAN_POINT('',(3.263720560764,3.918944768843,0.));
#210 = CARTESIAN_POINT('',(2.618465220748,3.622337248595,0.));
#211 = TRIMMED_CURVE('',#212,(#217,PARAMETER_VALUE(0.)),(#218,
    PARAMETER_VALUE(1.)),.T.,.PARAMETER.);
#212 = B_SPLINE_CURVE_WITH_KNOTS('',3,(#213,#214,#215,#216),
  .UNSPECIFIED.,.F.,.F.,(4,4),(0.,1.),.PIECEWISE_BEZIER_KNOTS.);
#213 = CARTESIAN_POINT('',(2.618465220748,3.622337248595,0.));
#214 = CARTESIAN_POINT('',(2.508899412384,3.544428655385,0.));
#215 = CARTESIAN_POINT('',(2.456829399427,3.485846492975,0.));
#216 = CARTESIAN_POINT('',(2.440378251883,3.465574014286,0.));
#217 = CARTESIAN_POINT('',(2.618465220748,3.622337248595,0.));
#218 = CARTESIAN_POINT('',(2.440378251883,3.465574014286,0.));
#219 = TRIMMED_CURVE('',#220,(#224,PARAMETER_VALUE(0.)),(#225,
    PARAMETER_VALUE(0.260590870588)),.T.,.PARAMETER.);
#220 = LINE('',#221,#222);
#221 = CARTESIAN_POINT('',(2.440378251883,3.465574014286,0.));
#222 = VECTOR('',#223,1.);
#223 = DIRECTION('',(-0.57712217064,-0.816657823177,0.));
#224 = CARTESIAN_POINT('',(2.440378251883,3.465574014286,0.));
#225 = CARTESIAN_POINT('',(2.289985483,3.252760441171,0.));
#226 = TRIMMED_CURVE('',#227,(#232,PARAMETER_VALUE(0.)),(#233,
    PARAMETER_VALUE(1.540976177951)),.T.,.PARAMETER.);
#227 = CIRCLE('',#228,0.228);
#228 = AXIS2_PLACEMENT_3D('',#229,#230,#231);
#229 = CARTESIAN_POINT('',(2.099867896209,3.378614734673,0.));
#230 = DIRECTION('',(-0.,0.,-1.));
#231 = DIRECTION('',(0.833849064873,-0.551992515357,-0.));
#232 = CARTESIAN_POINT('',(2.289985483,3.252760441171,0.));
#233 = CARTESIAN_POINT('',(1.979738050516,3.184829234251,0.));
#234 = TRIMMED_CURVE('',#235,(#240,PARAMETER_VALUE(0.)),(#241,
    PARAMETER_VALUE(6.512554984446E-02)),.T.,.PARAMETER.);
#235 = CIRCLE('',#236,3.75);
#236 = AXIS2_PLACEMENT_3D('',#237,#238,#239);
#237 = CARTESIAN_POINT('',(-8.02691246804E-14,-1.501021529293E-13,0.));
#238 = DIRECTION('',(0.,0.,1.));
#239 = DIRECTION('',(0.527930146804,0.8492877958,-0.));
#240 = CARTESIAN_POINT('',(1.979738050516,3.184829234251,0.));
#241 = CARTESIAN_POINT('',(1.768273998318,3.306918061711,0.));
#242 = TRIMMED_CURVE('',#243,(#248,PARAMETER_VALUE(0.)),(#249,
    PARAMETER_VALUE(1.540976177951)),.T.,.PARAMETER.);
#243 = CIRCLE('',#244,0.228);
#244 = AXIS2_PLACEMENT_3D('',#245,#246,#247);
#245 = CARTESIAN_POINT('',(1.876032241723,3.507846310045,0.));
#246 = DIRECTION('',(0.,0.,-1.));
#247 = DIRECTION('',(-0.47262387458,-0.881264247078,-0.));
#248 = CARTESIAN_POINT('',(1.768273998318,3.306918061711,0.));
#249 = CARTESIAN_POINT('',(1.67198043298,3.609565823161,0.));
#250 = TRIMMED_CURVE('',#251,(#255,PARAMETER_VALUE(0.)),(#256,
    PARAMETER_VALUE(0.260590870588)),.T.,.PARAMETER.);
#251 = LINE('',#252,#253);
#252 = CARTESIAN_POINT('',(1.67198043298,3.609565823161,0.));
#253 = VECTOR('',#254,1.);
#254 = DIRECTION('',(0.41868533575,0.90813137245,0.));
#255 = CARTESIAN_POINT('',(1.67198043298,3.609565823161,0.));
#256 = CARTESIAN_POINT('',(1.781086009125,3.846216568116,0.));
#257 = TRIMMED_CURVE('',#258,(#263,PARAMETER_VALUE(0.)),(#264,
    PARAMETER_VALUE(1.)),.T.,.PARAMETER.);
#258 = B_SPLINE_CURVE_WITH_KNOTS('',3,(#259,#260,#261,#262),
  .UNSPECIFIED.,.F.,.F.,(4,4),(0.,1.),.PIECEWISE_BEZIER_KNOTS.);
#259 = CARTESIAN_POINT('',(1.781086009125,3.846216568116,0.));
#260 = CARTESIAN_POINT('',(1.790416916895,3.870599919156,0.));
#261 = CARTESIAN_POINT('',(1.815115551273,3.944984954356,0.));
#262 = CARTESIAN_POINT('',(1.827803467984,4.078826024391,0.));
#263 = CARTESIAN_POINT('',(1.781086009125,3.846216568116,0.));
#264 = CARTESIAN_POINT('',(1.827803467984,4.078826024391,0.));
#265 = TRIMMED_CURVE('',#266,(#271,PARAMETER_VALUE(0.)),(#272,
    PARAMETER_VALUE(1.)),.T.,.PARAMETER.);
#266 = B_SPLINE_CURVE_WITH_KNOTS('',3,(#267,#268,#269,#270),
  .UNSPECIFIED.,.F.,.F.,(4,4),(0.,1.),.PIECEWISE_BEZIER_KNOTS.);
#267 = CARTESIAN_POINT('',(1.827803467984,4.078826024391,0.));
#268 = CARTESIAN_POINT('',(1.842270323385,4.238759113734,0.));
#269 = CARTESIAN_POINT('',(1.837546313834,4.475939153945,0.));
#270 = CARTESIAN_POINT('',(1.761992083861,4.786737636164,0.));
#271 = CARTESIAN_POINT('',(1.827803467984,4.078826024391,0.));
#272 = CARTESIAN_POINT('',(1.761992083861,4.786737636164,0.));
#273 = TRIMMED_CURVE('',#274,(#279,PARAMETER_VALUE(0.)),(#280,
    PARAMETER_VALUE(7.716430428157E-02)),.T.,.PARAMETER.);
#274 = CIRCLE('',#275,5.099999999999);
#275 = AXIS2_PLACEMENT_3D('',#276,#277,#278);
#276 = CARTESIAN_POINT('',(9.147985925076E-03,-2.577301102071E-03,0.));
#277 = DIRECTION('',(0.,0.,1.));
#278 = DIRECTION('',(0.343694921164,0.939081360248,-0.));
#279 = CARTESIAN_POINT('',(1.761992083861,4.786737636164,0.));
#280 = CARTESIAN_POINT('',(1.387578653622,4.907608937152,0.));
#281 = TRIMMED_CURVE('',#282,(#287,PARAMETER_VALUE(0.)),(#288,
    PARAMETER_VALUE(1.)),.T.,.PARAMETER.);
#282 = B_SPLINE_CURVE_WITH_KNOTS('',3,(#283,#284,#285,#286),
  .UNSPECIFIED.,.F.,.F.,(4,4),(0.,1.),.PIECEWISE_BEZIER_KNOTS.);
#283 = CARTESIAN_POINT('',(1.387578653622,4.907608937152,0.));
#284 = CARTESIAN_POINT('',(1.144284829005,4.701193465006,0.));
#285 = CARTESIAN_POINT('',(1.001052095222,4.512087484895,0.));
#286 = CARTESIAN_POINT('',(0.918749715827,4.374195493401,0.));
#287 = CARTESIAN_POINT('',(1.387578653622,4.907608937152,0.));
#288 = CARTESIAN_POINT('',(0.918749715827,4.374195493401,0.));
#289 = TRIMMED_CURVE('',#290,(#295,PARAMETER_VALUE(0.)),(#296,
    PARAMETER_VALUE(1.)),.T.,.PARAMETER.);
#290 = B_SPLINE_CURVE_WITH_KNOTS('',3,(#291,#292,#293,#294),
  .UNSPECIFIED.,.F.,.F.,(4,4),(0.,1.),.PIECEWISE_BEZIER_KNOTS.);
#291 = CARTESIAN_POINT('',(0.918749715827,4.374195493401,0.));
#292 = CARTESIAN_POINT('',(0.850344648953,4.258458022873,0.));
#293 = CARTESIAN_POINT('',(0.82660383722,4.18376177223,0.));
#294 = CARTESIAN_POINT('',(0.819820526036,4.158550656881,0.));
#295 = CARTESIAN_POINT('',(0.918749715827,4.374195493401,0.));
#296 = CARTESIAN_POINT('',(0.819820526036,4.158550656881,0.));
#297 = TRIMMED_CURVE('',#298,(#302,PARAMETER_VALUE(0.)),(#303,
    PARAMETER_VALUE(0.260590870588)),.T.,.PARAMETER.);
#298 = LINE('',#299,#300);
#299 = CARTESIAN_POINT('',(0.819820526036,4.158550656881,0.));
#300 = VECTOR('',#301,1.);
#301 = DIRECTION('',(-0.195062675953,-0.980790779142,0.));
#302 = CARTESIAN_POINT('',(0.819820526036,4.158550656881,0.));
#303 = CARTESIAN_POINT('',(0.76898897349,3.902965533879,0.));
#304 = TRIMMED_CURVE('',#305,(#310,PARAMETER_VALUE(0.)),(#311,
    PARAMETER_VALUE(1.540976177951)),.T.,.PARAMETER.);
#305 = CIRCLE('',#306,0.228);
#306 = AXIS2_PLACEMENT_3D('',#307,#308,#309);
#307 = CARTESIAN_POINT('',(0.544118362804,3.940611362991,0.));
#308 = DIRECTION('',(0.,0.,-1.));
#309 = DIRECTION('',(0.986274608274,-0.165113285579,0.));
#310 = CARTESIAN_POINT('',(0.76898897349,3.902965533879,0.));
#311 = CARTESIAN_POINT('',(0.513193951862,3.714718289154,0.));
#312 = TRIMMED_CURVE('',#313,(#318,PARAMETER_VALUE(0.)),(#319,
    PARAMETER_VALUE(6.512554984444E-02)),.T.,.PARAMETER.);
#313 = CIRCLE('',#314,3.750000000001);
#314 = AXIS2_PLACEMENT_3D('',#315,#316,#317);
#315 = CARTESIAN_POINT('',(-1.155464612879E-13,-1.090905143997E-12,0.));
#316 = DIRECTION('',(0.,0.,1.));
#317 = DIRECTION('',(0.136851720497,0.990591543774,-0.));
#318 = CARTESIAN_POINT('',(0.513193951862,3.714718289154,0.));
#319 = CARTESIAN_POINT('',(0.270353927684,3.740241804187,0.));
#320 = TRIMMED_CURVE('',#321,(#326,PARAMETER_VALUE(0.)),(#327,
    PARAMETER_VALUE(1.540976177951)),.T.,.PARAMETER.);
#321 = CIRCLE('',#322,0.228);
#322 = AXIS2_PLACEMENT_3D('',#323,#324,#325);
#323 = CARTESIAN_POINT('',(0.287071100243,3.96762811895,0.));
#324 = DIRECTION('',(0.,0.,-1.));
#325 = DIRECTION('',(-7.332093227689E-02,-0.997308398085,-0.));
#326 = CARTESIAN_POINT('',(0.270353927684,3.740241804187,0.));
#327 = CARTESIAN_POINT('',(5.928744394207E-02,3.977558170409,0.));
#328 = TRIMMED_CURVE('',#329,(#333,PARAMETER_VALUE(0.)),(#334,
    PARAMETER_VALUE(0.260590870588)),.T.,.PARAMETER.);
#329 = LINE('',#330,#331);
#330 = CARTESIAN_POINT('',(5.928744394207E-02,3.977558170409,0.));
#331 = VECTOR('',#332,1.);
#332 = DIRECTION('',(1.311778075385E-02,0.999913958212,0.));
#333 = CARTESIAN_POINT('',(5.928744394207E-02,3.977558170409,0.));
#334 = CARTESIAN_POINT('',(6.27058178489E-02,4.238126619293,0.));
#335 = TRIMMED_CURVE('',#336,(#341,PARAMETER_VALUE(0.)),(#342,
    PARAMETER_VALUE(1.)),.T.,.PARAMETER.);
#336 = B_SPLINE_CURVE_WITH_KNOTS('',3,(#337,#338,#339,#340),
  .UNSPECIFIED.,.F.,.F.,(4,4),(0.,1.),.PIECEWISE_BEZIER_KNOTS.);
#337 = CARTESIAN_POINT('',(6.27058178489E-02,4.238126619293,0.));
#338 = CARTESIAN_POINT('',(6.13124239093E-02,4.264197140981,0.));
#339 = CARTESIAN_POINT('',(5.362062964217E-02,4.34219709164,0.));
#340 = CARTESIAN_POINT('',(1.077355078941E-02,4.469627633867,0.));
#341 = CARTESIAN_POINT('',(6.27058178489E-02,4.238126619293,0.));
#342 = CARTESIAN_POINT('',(1.077355078941E-02,4.469627633867,0.));
#343 = TRIMMED_CURVE('',#344,(#349,PARAMETER_VALUE(0.)),(#350,
    PARAMETER_VALUE(1.)),.T.,.PARAMETER.);
#344 = B_SPLINE_CURVE_WITH_KNOTS('',3,(#345,#346,#347,#348),
  .UNSPECIFIED.,.F.,.F.,(4,4),(0.,1.),.PIECEWISE_BEZIER_KNOTS.);
#345 = CARTESIAN_POINT('',(1.077355078941E-02,4.469627633867,0.));
#346 = CARTESIAN_POINT('',(-4.106096704873E-02,4.621617981365,0.));
#347 = CARTESIAN_POINT('',(-0.141846377876,4.836371301957,0.));
#348 = CARTESIAN_POINT('',(-0.337281732805,5.08956916976,0.));
#349 = CARTESIAN_POINT('',(1.077355078941E-02,4.469627633867,0.));
#350 = CARTESIAN_POINT('',(-0.337281732805,5.08956916976,0.));
#351 = TRIMMED_CURVE('',#352,(#357,PARAMETER_VALUE(0.)),(#358,
    PARAMETER_VALUE(7.716430428154E-02)),.T.,.PARAMETER.);
#352 = CIRCLE('',#353,5.1);
#353 = AXIS2_PLACEMENT_3D('',#354,#355,#356);
#354 = CARTESIAN_POINT('',(9.405383787067E-03,1.366339369469E-03,0.));
#355 = DIRECTION('',(0.,0.,1.));
#356 = DIRECTION('',(-6.797786599835E-02,0.997686829488,0.));
#357 = CARTESIAN_POINT('',(-0.337281732805,5.08956916976,0.));
#358 = CARTESIAN_POINT('',(-0.728488208487,5.047702935999,0.));
#359 = TRIMMED_CURVE('',#360,(#365,PARAMETER_VALUE(0.)),(#366,
    PARAMETER_VALUE(1.)),.T.,.PARAMETER.);
#360 = B_SPLINE_CURVE_WITH_KNOTS('',3,(#361,#362,#363,#364),
  .UNSPECIFIED.,.F.,.F.,(4,4),(0.,1.),.PIECEWISE_BEZIER_KNOTS.);
#361 = CARTESIAN_POINT('',(-0.728488208487,5.047702935999,0.));
#362 = CARTESIAN_POINT('',(-0.86679144062,4.760176505527,0.));
#363 = CARTESIAN_POINT('',(-0.920724722417,4.529161595066,0.));
#364 = CARTESIAN_POINT('',(-0.939825961539,4.36971559908,0.));
#365 = CARTESIAN_POINT('',(-0.728488208487,5.047702935999,0.));
#366 = CARTESIAN_POINT('',(-0.939825961539,4.36971559908,0.));
#367 = TRIMMED_CURVE('',#368,(#373,PARAMETER_VALUE(0.)),(#374,
    PARAMETER_VALUE(1.)),.T.,.PARAMETER.);
#368 = B_SPLINE_CURVE_WITH_KNOTS('',3,(#369,#370,#371,#372),
  .UNSPECIFIED.,.F.,.F.,(4,4),(0.,1.),.PIECEWISE_BEZIER_KNOTS.);
#369 = CARTESIAN_POINT('',(-0.939825961539,4.36971559908,0.));
#370 = CARTESIAN_POINT('',(-0.955242429421,4.236161311329,0.));
#371 = CARTESIAN_POINT('',(-0.946549037904,4.158266632783,0.));
#372 = CARTESIAN_POINT('',(-0.942491616598,4.132476111655,0.));
#373 = CARTESIAN_POINT('',(-0.939825961539,4.36971559908,0.));
#374 = CARTESIAN_POINT('',(-0.942491616598,4.132476111655,0.));
#375 = TRIMMED_CURVE('',#376,(#380,PARAMETER_VALUE(0.)),(#381,
    PARAMETER_VALUE(0.260590870588)),.T.,.PARAMETER.);
#376 = LINE('',#377,#378);
#377 = CARTESIAN_POINT('',(-0.942491616598,4.132476111655,0.));
#378 = VECTOR('',#379,1.);
#379 = DIRECTION('',(0.220724927496,-0.975336099189,0.));
#380 = CARTESIAN_POINT('',(-0.942491616598,4.132476111655,0.));
#381 = CARTESIAN_POINT('',(-0.884972715581,3.878312428451,0.));
#382 = TRIMMED_CURVE('',#383,(#388,PARAMETER_VALUE(0.)),(#389,
    PARAMETER_VALUE(1.540976177951)),.T.,.PARAMETER.);
#383 = CIRCLE('',#384,0.228);
#384 = AXIS2_PLACEMENT_3D('',#385,#386,#387);
#385 = CARTESIAN_POINT('',(-1.10571417869,3.821240487318,0.));
#386 = DIRECTION('',(0.,0.,-1.));
#387 = DIRECTION('',(0.96816431188,0.250315531283,0.));
#388 = CARTESIAN_POINT('',(-0.884972715581,3.878312428451,0.));
#389 = CARTESIAN_POINT('',(-1.042086043289,3.602298804705,0.));
#390 = TRIMMED_CURVE('',#391,(#396,PARAMETER_VALUE(0.)),(#397,
    PARAMETER_VALUE(6.512554984448E-02)),.T.,.PARAMETER.);
#391 = CIRCLE('',#392,3.749999999999);
#392 = AXIS2_PLACEMENT_3D('',#393,#394,#395);
#393 = CARTESIAN_POINT('',(-3.679279103608E-13,1.134425886562E-12,0.));
#394 = DIRECTION('',(0.,0.,1.));
#395 = DIRECTION('',(-0.277889611544,0.960613014588,0.));
#396 = CARTESIAN_POINT('',(-1.042086043289,3.602298804705,0.));
#397 = CARTESIAN_POINT('',(-1.274312793135,3.526843759688,0.));
#398 = TRIMMED_CURVE('',#399,(#404,PARAMETER_VALUE(0.)),(#405,
    PARAMETER_VALUE(1.540976177951)),.T.,.PARAMETER.);
#399 = CIRCLE('',#400,0.228);
#400 = AXIS2_PLACEMENT_3D('',#401,#402,#403);
#401 = CARTESIAN_POINT('',(-1.351527242427,3.741370981319,0.));
#402 = DIRECTION('',(0.,0.,-1.));
#403 = DIRECTION('',(0.338659865317,-0.9409088668,0.));
#404 = CARTESIAN_POINT('',(-1.274312793135,3.526843759688,0.));
#405 = CARTESIAN_POINT('',(-1.563656882763,3.657794575012,0.));
#406 = TRIMMED_CURVE('',#407,(#411,PARAMETER_VALUE(0.)),(#412,
    PARAMETER_VALUE(0.260590870588)),.T.,.PARAMETER.);
#407 = LINE('',#408,#409);
#408 = CARTESIAN_POINT('',(-1.563656882763,3.657794575012,0.));
#409 = VECTOR('',#410,1.);
#410 = DIRECTION('',(-0.394717957706,0.918802336667,0.));
#411 = CARTESIAN_POINT('',(-1.563656882763,3.657794575012,0.));
#412 = CARTESIAN_POINT('',(-1.666516778998,3.897226075823,0.));
#413 = TRIMMED_CURVE('',#414,(#419,PARAMETER_VALUE(0.)),(#420,
    PARAMETER_VALUE(1.)),.T.,.PARAMETER.);
#414 = B_SPLINE_CURVE_WITH_KNOTS('',3,(#415,#416,#417,#418),
  .UNSPECIFIED.,.F.,.F.,(4,4),(0.,1.),.PIECEWISE_BEZIER_KNOTS.);
#415 = CARTESIAN_POINT('',(-1.666516778998,3.897226075823,0.));
#416 = CARTESIAN_POINT('',(-1.678393544177,3.920475938115,0.));
#417 = CARTESIAN_POINT('',(-1.717145785982,3.988603904157,0.));
#418 = CARTESIAN_POINT('',(-1.808119211212,4.087590020155,0.));
#419 = CARTESIAN_POINT('',(-1.666516778998,3.897226075823,0.));
#420 = CARTESIAN_POINT('',(-1.808119211212,4.087590020155,0.));
#421 = TRIMMED_CURVE('',#422,(#427,PARAMETER_VALUE(0.)),(#428,
    PARAMETER_VALUE(1.)),.T.,.PARAMETER.);
#422 = B_SPLINE_CURVE_WITH_KNOTS('',3,(#423,#424,#425,#426),
  .UNSPECIFIED.,.F.,.F.,(4,4),(0.,1.),.PIECEWISE_BEZIER_KNOTS.);
#423 = CARTESIAN_POINT('',(-1.808119211212,4.087590020155,0.));
#424 = CARTESIAN_POINT('',(-1.917292443253,4.205357113936,0.));
#425 = CARTESIAN_POINT('',(-2.096712542218,4.360550914806,0.));
#426 = CARTESIAN_POINT('',(-2.37823647376,4.51236795662,0.));
#427 = CARTESIAN_POINT('',(-1.808119211212,4.087590020155,0.));
#428 = CARTESIAN_POINT('',(-2.37823647376,4.51236795662,0.));
#429 = TRIMMED_CURVE('',#430,(#435,PARAMETER_VALUE(0.)),(#436,
    PARAMETER_VALUE(7.716430428153E-02)),.T.,.PARAMETER.);
#430 = CIRCLE('',#431,5.100000000001);
#431 = AXIS2_PLACEMENT_3D('',#432,#433,#434);
#432 = CARTESIAN_POINT('',(8.036505347912E-03,5.073727352491E-03,0.));
#433 = DIRECTION('',(0.,0.,1.));
#434 = DIRECTION('',(-0.46789666257,0.883783182209,0.));
#435 = CARTESIAN_POINT('',(-2.37823647376,4.51236795662,0.));
#436 = CARTESIAN_POINT('',(-2.718592841242,4.315003240271,0.));
#437 = TRIMMED_CURVE('',#438,(#443,PARAMETER_VALUE(0.)),(#444,
    PARAMETER_VALUE(1.)),.T.,.PARAMETER.);
#438 = B_SPLINE_CURVE_WITH_KNOTS('',3,(#439,#440,#441,#442),
  .UNSPECIFIED.,.F.,.F.,(4,4),(0.,1.),.PIECEWISE_BEZIER_KNOTS.);
#439 = CARTESIAN_POINT('',(-2.718592841242,4.315003240271,0.));
#440 = CARTESIAN_POINT('',(-2.727991595608,3.996081783397,0.));
#441 = CARTESIAN_POINT('',(-2.683299871028,3.763102519309,0.));
#442 = CARTESIAN_POINT('',(-2.635897192104,3.609672180058,0.));
#443 = CARTESIAN_POINT('',(-2.718592841242,4.315003240271,0.));
#444 = CARTESIAN_POINT('',(-2.635897192104,3.609672180058,0.));
#445 = TRIMMED_CURVE('',#446,(#451,PARAMETER_VALUE(0.)),(#452,
    PARAMETER_VALUE(1.)),.T.,.PARAMETER.);
#446 = B_SPLINE_CURVE_WITH_KNOTS('',3,(#447,#448,#449,#450),
  .UNSPECIFIED.,.F.,.F.,(4,4),(0.,1.),.PIECEWISE_BEZIER_KNOTS.);
#447 = CARTESIAN_POINT('',(-2.635897192104,3.609672180058,0.));
#448 = CARTESIAN_POINT('',(-2.595659413643,3.48139382474,0.));
#449 = CARTESIAN_POINT('',(-2.556034985245,3.413769415863,0.));
#450 = CARTESIAN_POINT('',(-2.541838396455,3.391858904356,0.));
#451 = CARTESIAN_POINT('',(-2.635897192104,3.609672180058,0.));
#452 = CARTESIAN_POINT('',(-2.541838396455,3.391858904356,0.));
#453 = TRIMMED_CURVE('',#454,(#458,PARAMETER_VALUE(0.)),(#459,
    PARAMETER_VALUE(0.260590870588)),.T.,.PARAMETER.);
#454 = LINE('',#455,#456);
#455 = CARTESIAN_POINT('',(-2.541838396455,3.391858904356,0.));
#456 = VECTOR('',#457,1.);
#457 = DIRECTION('',(0.598347185757,-0.801236947037,0.));
#458 = CARTESIAN_POINT('',(-2.541838396455,3.391858904356,0.));
#459 = CARTESIAN_POINT('',(-2.385914582404,3.183063870781,0.));
#460 = TRIMMED_CURVE('',#461,(#466,PARAMETER_VALUE(0.)),(#467,
    PARAMETER_VALUE(1.540976177951)),.T.,.PARAMETER.);
#461 = CIRCLE('',#462,0.228);
#462 = AXIS2_PLACEMENT_3D('',#463,#464,#465);
#463 = CARTESIAN_POINT('',(-2.564358693591,3.041142416508,0.));
#464 = DIRECTION('',(0.,-0.,-1.));
#465 = DIRECTION('',(0.782649610466,0.622462518741,0.));
#466 = CARTESIAN_POINT('',(-2.385914582404,3.183063870781,0.));
#467 = CARTESIAN_POINT('',(-2.417179894501,2.867009131066,0.));
#468 = TRIMMED_CURVE('',#469,(#474,PARAMETER_VALUE(0.)),(#475,
    PARAMETER_VALUE(6.512554984446E-02)),.T.,.PARAMETER.);
#469 = CIRCLE('',#470,3.75);
#470 = AXIS2_PLACEMENT_3D('',#471,#472,#473);
#471 = CARTESIAN_POINT('',(1.145750161413E-13,-1.258992909925E-13,0.));
#472 = DIRECTION('',(0.,0.,1.));
#473 = DIRECTION('',(-0.6445813052,0.764535768284,0.));
#474 = CARTESIAN_POINT('',(-2.417179894501,2.867009131066,0.));
#475 = CARTESIAN_POINT('',(-2.598639255253,2.70362238877,0.));
#476 = TRIMMED_CURVE('',#477,(#482,PARAMETER_VALUE(0.)),(#483,
    PARAMETER_VALUE(1.540976177951)),.T.,.PARAMETER.);
#477 = CIRCLE('',#478,0.228);
#478 = AXIS2_PLACEMENT_3D('',#479,#480,#481);
#479 = CARTESIAN_POINT('',(-2.756434246642,2.868196811729,0.));
#480 = DIRECTION('',(-0.,0.,-1.));
#481 = DIRECTION('',(0.692083295568,-0.721817644558,-0.));
#482 = CARTESIAN_POINT('',(-2.598639255253,2.70362238877,0.));
#483 = CARTESIAN_POINT('',(-2.916230729061,2.705565067575,0.));
#484 = TRIMMED_CURVE('',#485,(#489,PARAMETER_VALUE(0.)),(#490,
    PARAMETER_VALUE(0.260590870588)),.T.,.PARAMETER.);
#485 = LINE('',#486,#487);
#486 = CARTESIAN_POINT('',(-2.916230729061,2.705565067575,0.));
#487 = VECTOR('',#488,1.);
#488 = DIRECTION('',(-0.734303375378,0.678821444054,0.));
#489 = CARTESIAN_POINT('',(-2.916230729061,2.705565067575,0.));
#490 = CARTESIAN_POINT('',(-3.107583484926,2.882459738655,0.));
#491 = TRIMMED_CURVE('',#492,(#497,PARAMETER_VALUE(0.)),(#498,
    PARAMETER_VALUE(1.)),.T.,.PARAMETER.);
#492 = B_SPLINE_CURVE_WITH_KNOTS('',3,(#493,#494,#495,#496),
  .UNSPECIFIED.,.F.,.F.,(4,4),(0.,1.),.PIECEWISE_BEZIER_KNOTS.);
#493 = CARTESIAN_POINT('',(-3.107583484926,2.882459738655,0.));
#494 = CARTESIAN_POINT('',(-3.127890020748,2.898868829144,0.));
#495 = CARTESIAN_POINT('',(-3.191002095429,2.945344866316,0.));
#496 = CARTESIAN_POINT('',(-3.314371735347,2.998770957369,0.));
#497 = CARTESIAN_POINT('',(-3.107583484926,2.882459738655,0.));
#498 = CARTESIAN_POINT('',(-3.314371735347,2.998770957369,0.));
#499 = TRIMMED_CURVE('',#500,(#505,PARAMETER_VALUE(0.)),(#506,
    PARAMETER_VALUE(1.)),.T.,.PARAMETER.);
#500 = B_SPLINE_CURVE_WITH_KNOTS('',3,(#501,#502,#503,#504),
  .UNSPECIFIED.,.F.,.F.,(4,4),(0.,1.),.PIECEWISE_BEZIER_KNOTS.);
#501 = CARTESIAN_POINT('',(-3.314371735347,2.998770957369,0.));
#502 = CARTESIAN_POINT('',(-3.462006637964,3.061951797038,0.));
#503 = CARTESIAN_POINT('',(-3.689038059975,3.130751660123,0.));
#504 = CARTESIAN_POINT('',(-4.007972522802,3.154937330205,0.));
#505 = CARTESIAN_POINT('',(-3.314371735347,2.998770957369,0.));
#506 = CARTESIAN_POINT('',(-4.007972522802,3.154937330205,0.));
#507 = TRIMMED_CURVE('',#508,(#513,PARAMETER_VALUE(0.)),(#514,
    PARAMETER_VALUE(7.716430428153E-02)),.T.,.PARAMETER.);
#508 = CIRCLE('',#509,5.100000000001);
#509 = AXIS2_PLACEMENT_3D('',#510,#511,#512);
#510 = CARTESIAN_POINT('',(5.278042124584E-03,7.903821783511E-03,0.));
#511 = DIRECTION('',(0.,0.,1.));
#512 = DIRECTION('',(-0.786911875476,0.617065393808,0.));
#513 = CARTESIAN_POINT('',(-4.007972522802,3.154937330205,0.));
#514 = CARTESIAN_POINT('',(-4.238628074105,2.836200283726,0.));
#515 = TRIMMED_CURVE('',#516,(#521,PARAMETER_VALUE(0.)),(#522,
    PARAMETER_VALUE(1.)),.T.,.PARAMETER.);
#516 = B_SPLINE_CURVE_WITH_KNOTS('',3,(#517,#518,#519,#520),
  .UNSPECIFIED.,.F.,.F.,(4,4),(0.,1.),.PIECEWISE_BEZIER_KNOTS.);
#517 = CARTESIAN_POINT('',(-4.238628074105,2.836200283726,0.));
#518 = CARTESIAN_POINT('',(-4.11749722069,2.541028217654,0.));
#519 = CARTESIAN_POINT('',(-3.981908094925,2.346368831251,0.));
#520 = CARTESIAN_POINT('',(-3.876197851781,2.225483648261,0.));
#521 = CARTESIAN_POINT('',(-4.238628074105,2.836200283726,0.));
#522 = CARTESIAN_POINT('',(-3.876197851781,2.225483648261,0.));
#523 = TRIMMED_CURVE('',#524,(#529,PARAMETER_VALUE(0.)),(#530,
    PARAMETER_VALUE(1.)),.T.,.PARAMETER.);
#524 = B_SPLINE_CURVE_WITH_KNOTS('',3,(#525,#526,#527,#528),
  .UNSPECIFIED.,.F.,.F.,(4,4),(0.,1.),.PIECEWISE_BEZIER_KNOTS.);
#525 = CARTESIAN_POINT('',(-3.876197851781,2.225483648261,0.));
#526 = CARTESIAN_POINT('',(-3.78726330442,2.124661718383,0.));
#527 = CARTESIAN_POINT('',(-3.723559262789,2.079000453817,0.));
#528 = CARTESIAN_POINT('',(-3.701678225687,2.064758478424,0.));
#529 = CARTESIAN_POINT('',(-3.876197851781,2.225483648261,0.));
#530 = CARTESIAN_POINT('',(-3.701678225687,2.064758478424,0.));
#531 = TRIMMED_CURVE('',#532,(#536,PARAMETER_VALUE(0.)),(#537,
    PARAMETER_VALUE(0.260590870588)),.T.,.PARAMETER.);
#532 = LINE('',#533,#534);
#533 = CARTESIAN_POINT('',(-3.701678225687,2.064758478424,0.));
#534 = VECTOR('',#535,1.);
#535 = DIRECTION('',(0.872509779788,-0.488596647732,0.));
#536 = CARTESIAN_POINT('',(-3.701678225687,2.064758478424,0.));
#537 = CARTESIAN_POINT('',(-3.474310142576,1.937434652625,0.));
#538 = TRIMMED_CURVE('',#539,(#544,PARAMETER_VALUE(0.)),(#545,
    PARAMETER_VALUE(1.540976177951)),.T.,.PARAMETER.);
#539 = CIRCLE('',#540,0.228);
#540 = AXIS2_PLACEMENT_3D('',#541,#542,#543);
#541 = CARTESIAN_POINT('',(-3.579602293902,1.735203193972,0.));
#542 = DIRECTION('',(0.,-0.,-1.));
#543 = DIRECTION('',(0.461807681254,0.886980081814,0.));
#544 = CARTESIAN_POINT('',(-3.474310142576,1.937434652625,0.));
#545 = CARTESIAN_POINT('',(-3.374321382564,1.635987532706,0.));
#546 = TRIMMED_CURVE('',#547,(#552,PARAMETER_VALUE(0.)),(#553,
    PARAMETER_VALUE(6.512554984443E-02)),.T.,.PARAMETER.);
#547 = CIRCLE('',#548,3.750000000002);
#548 = AXIS2_PLACEMENT_3D('',#549,#550,#551);
#549 = CARTESIAN_POINT('',(1.834088436681E-12,-8.253397965063E-13,0.));
#550 = DIRECTION('',(0.,0.,1.));
#551 = DIRECTION('',(-0.899819035351,0.436263342055,0.));
#552 = CARTESIAN_POINT('',(-3.374321382564,1.635987532706,0.));
#553 = CARTESIAN_POINT('',(-3.473637382241,1.412920145195,0.));
#554 = TRIMMED_CURVE('',#555,(#560,PARAMETER_VALUE(0.)),(#561,
    PARAMETER_VALUE(1.540976177951)),.T.,.PARAMETER.);
#555 = CIRCLE('',#556,0.228);
#556 = AXIS2_PLACEMENT_3D('',#557,#558,#559);
#557 = CARTESIAN_POINT('',(-3.684728728194,1.499085356642,0.));
#558 = DIRECTION('',(0.,0.,-1.));
#559 = DIRECTION('',(0.925839236637,-0.377917594064,0.));
#560 = CARTESIAN_POINT('',(-3.473637382241,1.412920145195,0.));
#561 = CARTESIAN_POINT('',(-3.76456178918,1.285518780667,0.));
#562 = TRIMMED_CURVE('',#563,(#567,PARAMETER_VALUE(0.)),(#568,
    PARAMETER_VALUE(0.260590870588)),.T.,.PARAMETER.);
#563 = LINE('',#564,#565);
#564 = CARTESIAN_POINT('',(-3.76456178918,1.285518780667,0.));
#565 = VECTOR('',#566,1.);
#566 = DIRECTION('',(-0.946921068511,0.321466156866,0.));
#567 = CARTESIAN_POINT('',(-3.76456178918,1.285518780667,0.));
#568 = CARTESIAN_POINT('',(-4.011320774801,1.369289926349,0.));
#569 = TRIMMED_CURVE('',#570,(#575,PARAMETER_VALUE(0.)),(#576,
    PARAMETER_VALUE(1.)),.T.,.PARAMETER.);
#570 = B_SPLINE_CURVE_WITH_KNOTS('',3,(#571,#572,#573,#574),
  .UNSPECIFIED.,.F.,.F.,(4,4),(0.,1.),.PIECEWISE_BEZIER_KNOTS.);
#571 = CARTESIAN_POINT('',(-4.011320774801,1.369289926349,0.));
#572 = CARTESIAN_POINT('',(-4.036545896743,1.376020964217,0.));
#573 = CARTESIAN_POINT('',(-4.113105153234,1.392808943471,0.));
#574 = CARTESIAN_POINT('',(-4.247539276318,1.391437153075,0.));
#575 = CARTESIAN_POINT('',(-4.011320774801,1.369289926349,0.));
#576 = CARTESIAN_POINT('',(-4.247539276318,1.391437153075,0.));
#577 = TRIMMED_CURVE('',#578,(#583,PARAMETER_VALUE(0.)),(#584,
    PARAMETER_VALUE(1.)),.T.,.PARAMETER.);
#578 = B_SPLINE_CURVE_WITH_KNOTS('',3,(#579,#580,#581,#582),
  .UNSPECIFIED.,.F.,.F.,(4,4),(0.,1.),.PIECEWISE_BEZIER_KNOTS.);
#579 = CARTESIAN_POINT('',(-4.247539276318,1.391437153075,0.));
#580 = CARTESIAN_POINT('',(-4.408108433627,1.389107197474,0.));
#581 = CARTESIAN_POINT('',(-4.643495383303,1.35961700142,0.));
#582 = CARTESIAN_POINT('',(-4.944693711364,1.251989377692,0.));
#583 = CARTESIAN_POINT('',(-4.247539276318,1.391437153075,0.));
#584 = CARTESIAN_POINT('',(-4.944693711364,1.251989377692,0.));
#585 = TRIMMED_CURVE('',#586,(#591,PARAMETER_VALUE(0.)),(#592,
    PARAMETER_VALUE(7.716430428157E-02)),.T.,.PARAMETER.);
#586 = CIRCLE('',#587,5.099999999998);
#587 = AXIS2_PLACEMENT_3D('',#588,#589,#590);
#588 = CARTESIAN_POINT('',(1.606957465693E-03,9.367273624681E-03,0.));
#589 = DIRECTION('',(0.,0.,1.));
#590 = DIRECTION('',(-0.969862876241,0.243651392954,0.));
#591 = CARTESIAN_POINT('',(-4.944693711364,1.251989377692,0.));
#592 = CARTESIAN_POINT('',(-5.025766006229,0.866992532054,0.));
#593 = TRIMMED_CURVE('',#594,(#599,PARAMETER_VALUE(0.)),(#600,
    PARAMETER_VALUE(1.)),.T.,.PARAMETER.);
#594 = B_SPLINE_CURVE_WITH_KNOTS('',3,(#595,#596,#597,#598),
  .UNSPECIFIED.,.F.,.F.,(4,4),(0.,1.),.PIECEWISE_BEZIER_KNOTS.);
#595 = CARTESIAN_POINT('',(-5.025766006229,0.866992532054,0.));
#596 = CARTESIAN_POINT('',(-4.795050170027,0.646607788562,0.));
#597 = CARTESIAN_POINT('',(-4.592008234709,0.523926656177,0.));
#598 = CARTESIAN_POINT('',(-4.446268688732,0.456488775796,0.));
#599 = CARTESIAN_POINT('',(-5.025766006229,0.866992532054,0.));
#600 = CARTESIAN_POINT('',(-4.446268688732,0.456488775796,0.));
#601 = TRIMMED_CURVE('',#602,(#607,PARAMETER_VALUE(0.)),(#608,
    PARAMETER_VALUE(1.)),.T.,.PARAMETER.);
#602 = B_SPLINE_CURVE_WITH_KNOTS('',3,(#603,#604,#605,#606),
  .UNSPECIFIED.,.F.,.F.,(4,4),(0.,1.),.PIECEWISE_BEZIER_KNOTS.);
#603 = CARTESIAN_POINT('',(-4.446268688732,0.456488775796,0.));
#604 = CARTESIAN_POINT('',(-4.324014963656,0.400556298972,0.));
#605 = CARTESIAN_POINT('',(-4.247246316323,0.384753426181,0.));
#606 = CARTESIAN_POINT('',(-4.221464261008,0.380642553831,0.));
#607 = CARTESIAN_POINT('',(-4.446268688732,0.456488775796,0.));
#608 = CARTESIAN_POINT('',(-4.221464261008,0.380642553831,0.));
#609 = TRIMMED_CURVE('',#610,(#614,PARAMETER_VALUE(0.)),(#615,
    PARAMETER_VALUE(0.260590870588)),.T.,.PARAMETER.);
#610 = LINE('',#611,#612);
#611 = CARTESIAN_POINT('',(-4.221464261008,0.380642553831,0.));
#612 = VECTOR('',#613,1.);
#613 = DIRECTION('',(0.99580750639,-9.147354927348E-02,0.));
#614 = CARTESIAN_POINT('',(-4.221464261008,0.380642553831,0.));
#615 = CARTESIAN_POINT('',(-3.961965915979,0.35680538199,0.));
#616 = TRIMMED_CURVE('',#617,(#622,PARAMETER_VALUE(0.)),(#623,
    PARAMETER_VALUE(1.540976177951)),.T.,.PARAMETER.);
#617 = CIRCLE('',#618,0.228);
#618 = AXIS2_PLACEMENT_3D('',#619,#620,#621);
#619 = CARTESIAN_POINT('',(-3.975900137932,0.129231575372,0.));
#620 = DIRECTION('',(0.,0.,-1.));
#621 = DIRECTION('',(6.111500856185E-02,0.998130730781,0.));
#622 = CARTESIAN_POINT('',(-3.961965915979,0.35680538199,0.));
#623 = CARTESIAN_POINT('',(-3.748012048835,0.12208882746,0.));
#624 = TRIMMED_CURVE('',#625,(#630,PARAMETER_VALUE(0.)),(#631,
    PARAMETER_VALUE(6.512554984445E-02)),.T.,.PARAMETER.);
#625 = CIRCLE('',#626,3.750000000001);
#626 = AXIS2_PLACEMENT_3D('',#627,#628,#629);
#627 = CARTESIAN_POINT('',(8.213429936177E-13,-5.377642775528E-15,0.));
#628 = DIRECTION('',(0.,0.,1.));
#629 = DIRECTION('',(-0.999469879689,3.255702065606E-02,0.));
#630 = CARTESIAN_POINT('',(-3.748012048835,0.12208882746,0.));
#631 = CARTESIAN_POINT('',(-3.748012048835,-0.12208882746,0.));
#632 = TRIMMED_CURVE('',#633,(#638,PARAMETER_VALUE(0.)),(#639,
    PARAMETER_VALUE(1.540976177951)),.T.,.PARAMETER.);
#633 = CIRCLE('',#634,0.228);
#634 = AXIS2_PLACEMENT_3D('',#635,#636,#637);
#635 = CARTESIAN_POINT('',(-3.975900137932,-0.129231575372,0.));
#636 = DIRECTION('',(0.,0.,-1.));
#637 = DIRECTION('',(0.999509162706,3.132784171753E-02,0.));
#638 = CARTESIAN_POINT('',(-3.748012048835,-0.12208882746,0.));
#639 = CARTESIAN_POINT('',(-3.961965915979,-0.35680538199,0.));
#640 = TRIMMED_CURVE('',#641,(#645,PARAMETER_VALUE(0.)),(#646,
    PARAMETER_VALUE(0.260590870588)),.T.,.PARAMETER.);
#641 = LINE('',#642,#643);
#642 = CARTESIAN_POINT('',(-3.961965915979,-0.35680538199,0.));
#643 = VECTOR('',#644,1.);
#644 = DIRECTION('',(-0.99580750639,-9.147354927348E-02,0.));
#645 = CARTESIAN_POINT('',(-3.961965915979,-0.35680538199,0.));
#646 = CARTESIAN_POINT('',(-4.221464261008,-0.380642553831,0.));
#647 = TRIMMED_CURVE('',#648,(#653,PARAMETER_VALUE(0.)),(#654,
    PARAMETER_VALUE(1.)),.T.,.PARAMETER.);
#648 = B_SPLINE_CURVE_WITH_KNOTS('',3,(#649,#650,#651,#652),
  .UNSPECIFIED.,.F.,.F.,(4,4),(0.,1.),.PIECEWISE_BEZIER_KNOTS.);
#649 = CARTESIAN_POINT('',(-4.221464261008,-0.380642553831,0.));
#650 = CARTESIAN_POINT('',(-4.247246316323,-0.384753426181,0.));
#651 = CARTESIAN_POINT('',(-4.324014963656,-0.400556298972,0.));
#652 = CARTESIAN_POINT('',(-4.446268688732,-0.456488775796,0.));
#653 = CARTESIAN_POINT('',(-4.221464261008,-0.380642553831,0.));
#654 = CARTESIAN_POINT('',(-4.446268688732,-0.456488775796,0.));
#655 = TRIMMED_CURVE('',#656,(#661,PARAMETER_VALUE(0.)),(#662,
    PARAMETER_VALUE(1.)),.T.,.PARAMETER.);
#656 = B_SPLINE_CURVE_WITH_KNOTS('',3,(#657,#658,#659,#660),
  .UNSPECIFIED.,.F.,.F.,(4,4),(0.,1.),.PIECEWISE_BEZIER_KNOTS.);
#657 = CARTESIAN_POINT('',(-4.446268688732,-0.456488775796,0.));
#658 = CARTESIAN_POINT('',(-4.592008234709,-0.523926656177,0.));
#659 = CARTESIAN_POINT('',(-4.795050170027,-0.646607788562,0.));
#660 = CARTESIAN_POINT('',(-5.026432436099,-0.867438912191,0.));
#661 = CARTESIAN_POINT('',(-4.446268688732,-0.456488775796,0.));
#662 = CARTESIAN_POINT('',(-5.026432436099,-0.867438912191,0.));
#663 = TRIMMED_CURVE('',#664,(#669,PARAMETER_VALUE(0.)),(#670,
    PARAMETER_VALUE(7.716430428156E-02)),.T.,.PARAMETER.);
#664 = CIRCLE('',#665,5.099999999999);
#665 = AXIS2_PLACEMENT_3D('',#666,#667,#668);
#666 = CARTESIAN_POINT('',(-2.341984734742E-03,9.211038755661E-03,0.));
#667 = DIRECTION('',(0.,0.,1.));
#668 = DIRECTION('',(-0.985115774778,-0.171892147245,0.));
#669 = CARTESIAN_POINT('',(-5.026432436099,-0.867438912191,0.));
#670 = CARTESIAN_POINT('',(-4.943903338224,-1.25212610479,0.));
#671 = TRIMMED_CURVE('',#672,(#677,PARAMETER_VALUE(0.)),(#678,
    PARAMETER_VALUE(1.)),.T.,.PARAMETER.);
#672 = B_SPLINE_CURVE_WITH_KNOTS('',3,(#673,#674,#675,#676),
  .UNSPECIFIED.,.F.,.F.,(4,4),(0.,1.),.PIECEWISE_BEZIER_KNOTS.);
#673 = CARTESIAN_POINT('',(-4.943903338224,-1.25212610479,0.));
#674 = CARTESIAN_POINT('',(-4.643495383303,-1.35961700142,0.));
#675 = CARTESIAN_POINT('',(-4.408108433627,-1.389107197474,0.));
#676 = CARTESIAN_POINT('',(-4.247539276318,-1.391437153075,0.));
#677 = CARTESIAN_POINT('',(-4.943903338224,-1.25212610479,0.));
#678 = CARTESIAN_POINT('',(-4.247539276318,-1.391437153075,0.));
#679 = TRIMMED_CURVE('',#680,(#685,PARAMETER_VALUE(0.)),(#686,
    PARAMETER_VALUE(1.)),.T.,.PARAMETER.);
#680 = B_SPLINE_CURVE_WITH_KNOTS('',3,(#681,#682,#683,#684),
  .UNSPECIFIED.,.F.,.F.,(4,4),(0.,1.),.PIECEWISE_BEZIER_KNOTS.);
#681 = CARTESIAN_POINT('',(-4.247539276318,-1.391437153075,0.));
#682 = CARTESIAN_POINT('',(-4.113105153234,-1.392808943471,0.));
#683 = CARTESIAN_POINT('',(-4.036545896743,-1.376020964217,0.));
#684 = CARTESIAN_POINT('',(-4.011320774801,-1.369289926349,0.));
#685 = CARTESIAN_POINT('',(-4.247539276318,-1.391437153075,0.));
#686 = CARTESIAN_POINT('',(-4.011320774801,-1.369289926349,0.));
#687 = TRIMMED_CURVE('',#688,(#692,PARAMETER_VALUE(0.)),(#693,
    PARAMETER_VALUE(0.260590870588)),.T.,.PARAMETER.);
#688 = LINE('',#689,#690);
#689 = CARTESIAN_POINT('',(-4.011320774801,-1.369289926349,0.));
#690 = VECTOR('',#691,1.);
#691 = DIRECTION('',(0.946921068511,0.321466156866,0.));
#692 = CARTESIAN_POINT('',(-4.011320774801,-1.369289926349,0.));
#693 = CARTESIAN_POINT('',(-3.76456178918,-1.285518780667,0.));
#694 = TRIMMED_CURVE('',#695,(#700,PARAMETER_VALUE(0.)),(#701,
    PARAMETER_VALUE(1.540976177951)),.T.,.PARAMETER.);
#695 = CIRCLE('',#696,0.228);
#696 = AXIS2_PLACEMENT_3D('',#697,#698,#699);
#697 = CARTESIAN_POINT('',(-3.684728728194,-1.499085356642,0.));
#698 = DIRECTION('',(0.,0.,-1.));
#699 = DIRECTION('',(-0.350145004323,0.936695508662,0.));
#700 = CARTESIAN_POINT('',(-3.76456178918,-1.285518780667,0.));
#701 = CARTESIAN_POINT('',(-3.473637382241,-1.412920145195,0.));
#702 = TRIMMED_CURVE('',#703,(#708,PARAMETER_VALUE(0.)),(#709,
    PARAMETER_VALUE(6.512554984447E-02)),.T.,.PARAMETER.);
#703 = CIRCLE('',#704,3.75);
#704 = AXIS2_PLACEMENT_3D('',#705,#706,#707);
#705 = CARTESIAN_POINT('',(-3.563815909047E-13,-1.653122083667E-13,0.));
#706 = DIRECTION('',(0.,0.,1.));
#707 = DIRECTION('',(-0.926303301931,-0.376778705385,0.));
#708 = CARTESIAN_POINT('',(-3.473637382241,-1.412920145195,0.));
#709 = CARTESIAN_POINT('',(-3.374321382564,-1.635987532706,0.));
#710 = TRIMMED_CURVE('',#711,(#716,PARAMETER_VALUE(0.)),(#717,
    PARAMETER_VALUE(1.540976177951)),.T.,.PARAMETER.);
#711 = CIRCLE('',#712,0.228);
#712 = AXIS2_PLACEMENT_3D('',#713,#714,#715);
#713 = CARTESIAN_POINT('',(-3.579602293902,-1.735203193972,0.));
#714 = DIRECTION('',(0.,-0.,-1.));
#715 = DIRECTION('',(0.900354874287,0.435156409061,0.));
#716 = CARTESIAN_POINT('',(-3.374321382564,-1.635987532706,0.));
#717 = CARTESIAN_POINT('',(-3.474310142576,-1.937434652625,0.));
#718 = TRIMMED_CURVE('',#719,(#723,PARAMETER_VALUE(0.)),(#724,
    PARAMETER_VALUE(0.260590870588)),.T.,.PARAMETER.);
#719 = LINE('',#720,#721);
#720 = CARTESIAN_POINT('',(-3.474310142576,-1.937434652625,0.));
#721 = VECTOR('',#722,1.);
#722 = DIRECTION('',(-0.872509779788,-0.488596647732,0.));
#723 = CARTESIAN_POINT('',(-3.474310142576,-1.937434652625,0.));
#724 = CARTESIAN_POINT('',(-3.701678225687,-2.064758478424,0.));
#725 = TRIMMED_CURVE('',#726,(#731,PARAMETER_VALUE(0.)),(#732,
    PARAMETER_VALUE(1.)),.T.,.PARAMETER.);
#726 = B_SPLINE_CURVE_WITH_KNOTS('',3,(#727,#728,#729,#730),
  .UNSPECIFIED.,.F.,.F.,(4,4),(0.,1.),.PIECEWISE_BEZIER_KNOTS.);
#727 = CARTESIAN_POINT('',(-3.701678225687,-2.064758478424,0.));
#728 = CARTESIAN_POINT('',(-3.723559262789,-2.079000453817,0.));
#729 = CARTESIAN_POINT('',(-3.78726330442,-2.124661718383,0.));
#730 = CARTESIAN_POINT('',(-3.876197851781,-2.225483648261,0.));
#731 = CARTESIAN_POINT('',(-3.701678225687,-2.064758478424,0.));
#732 = CARTESIAN_POINT('',(-3.876197851781,-2.225483648261,0.));
#733 = TRIMMED_CURVE('',#734,(#739,PARAMETER_VALUE(0.)),(#740,
    PARAMETER_VALUE(1.)),.T.,.PARAMETER.);
#734 = B_SPLINE_CURVE_WITH_KNOTS('',3,(#735,#736,#737,#738),
  .UNSPECIFIED.,.F.,.F.,(4,4),(0.,1.),.PIECEWISE_BEZIER_KNOTS.);
#735 = CARTESIAN_POINT('',(-3.876197851781,-2.225483648261,0.));
#736 = CARTESIAN_POINT('',(-3.981908094925,-2.346368831251,0.));
#737 = CARTESIAN_POINT('',(-4.11749722069,-2.541028217654,0.));
#738 = CARTESIAN_POINT('',(-4.239055328928,-2.836879133721,0.));
#739 = CARTESIAN_POINT('',(-3.876197851781,-2.225483648261,0.));
#740 = CARTESIAN_POINT('',(-4.239055328928,-2.836879133721,0.));
#741 = TRIMMED_CURVE('',#742,(#747,PARAMETER_VALUE(0.)),(#748,
    PARAMETER_VALUE(7.716430428154E-02)),.T.,.PARAMETER.);
#742 = CIRCLE('',#743,5.1);
#743 = AXIS2_PLACEMENT_3D('',#744,#745,#746);
#744 = CARTESIAN_POINT('',(-5.885976497683E-03,7.462131607226E-03,0.));
#745 = DIRECTION('',(0.,0.,1.));
#746 = DIRECTION('',(-0.830033206359,-0.557713973594,0.));
#747 = CARTESIAN_POINT('',(-4.239055328928,-2.836879133721,0.));
#748 = CARTESIAN_POINT('',(-4.007194869089,-3.154740762907,0.));
#749 = TRIMMED_CURVE('',#750,(#755,PARAMETER_VALUE(0.)),(#756,
    PARAMETER_VALUE(1.)),.T.,.PARAMETER.);
#750 = B_SPLINE_CURVE_WITH_KNOTS('',3,(#751,#752,#753,#754),
  .UNSPECIFIED.,.F.,.F.,(4,4),(0.,1.),.PIECEWISE_BEZIER_KNOTS.);
#751 = CARTESIAN_POINT('',(-4.007194869089,-3.154740762907,0.));
#752 = CARTESIAN_POINT('',(-3.689038059975,-3.130751660123,0.));
#753 = CARTESIAN_POINT('',(-3.462006637964,-3.061951797038,0.));
#754 = CARTESIAN_POINT('',(-3.314371735347,-2.998770957369,0.));
#755 = CARTESIAN_POINT('',(-4.007194869089,-3.154740762907,0.));
#756 = CARTESIAN_POINT('',(-3.314371735347,-2.998770957369,0.));
#757 = TRIMMED_CURVE('',#758,(#763,PARAMETER_VALUE(0.)),(#764,
    PARAMETER_VALUE(1.)),.T.,.PARAMETER.);
#758 = B_SPLINE_CURVE_WITH_KNOTS('',3,(#759,#760,#761,#762),
  .UNSPECIFIED.,.F.,.F.,(4,4),(0.,1.),.PIECEWISE_BEZIER_KNOTS.);
#759 = CARTESIAN_POINT('',(-3.314371735347,-2.998770957369,0.));
#760 = CARTESIAN_POINT('',(-3.191002095429,-2.945344866316,0.));
#761 = CARTESIAN_POINT('',(-3.127890020748,-2.898868829144,0.));
#762 = CARTESIAN_POINT('',(-3.107583484926,-2.882459738655,0.));
#763 = CARTESIAN_POINT('',(-3.314371735347,-2.998770957369,0.));
#764 = CARTESIAN_POINT('',(-3.107583484926,-2.882459738655,0.));
#765 = TRIMMED_CURVE('',#766,(#770,PARAMETER_VALUE(0.)),(#771,
    PARAMETER_VALUE(0.260590870588)),.T.,.PARAMETER.);
#766 = LINE('',#767,#768);
#767 = CARTESIAN_POINT('',(-3.107583484926,-2.882459738655,0.));
#768 = VECTOR('',#769,1.);
#769 = DIRECTION('',(0.734303375378,0.678821444054,0.));
#770 = CARTESIAN_POINT('',(-3.107583484926,-2.882459738655,0.));
#771 = CARTESIAN_POINT('',(-2.916230729061,-2.705565067575,0.));
#772 = TRIMMED_CURVE('',#773,(#778,PARAMETER_VALUE(0.)),(#779,
    PARAMETER_VALUE(1.540976177951)),.T.,.PARAMETER.);
#773 = CIRCLE('',#774,0.228);
#774 = AXIS2_PLACEMENT_3D('',#775,#776,#777);
#775 = CARTESIAN_POINT('',(-2.756434246642,-2.868196811729,0.));
#776 = DIRECTION('',(0.,0.,-1.));
#777 = DIRECTION('',(-0.700861764993,0.713297123484,0.));
#778 = CARTESIAN_POINT('',(-2.916230729061,-2.705565067575,0.));
#779 = CARTESIAN_POINT('',(-2.598639255253,-2.70362238877,0.));
#780 = TRIMMED_CURVE('',#781,(#786,PARAMETER_VALUE(0.)),(#787,
    PARAMETER_VALUE(6.512554984446E-02)),.T.,.PARAMETER.);
#781 = CIRCLE('',#782,3.75);
#782 = AXIS2_PLACEMENT_3D('',#783,#784,#785);
#783 = CARTESIAN_POINT('',(7.771561172376E-14,8.015810237794E-14,0.));
#784 = DIRECTION('',(0.,0.,1.));
#785 = DIRECTION('',(-0.692970468067,-0.720965970339,0.));
#786 = CARTESIAN_POINT('',(-2.598639255253,-2.70362238877,0.));
#787 = CARTESIAN_POINT('',(-2.417179894501,-2.867009131066,0.));
#788 = TRIMMED_CURVE('',#789,(#794,PARAMETER_VALUE(0.)),(#795,
    PARAMETER_VALUE(1.540976177951)),.T.,.PARAMETER.);
#789 = CIRCLE('',#790,0.228);
#790 = AXIS2_PLACEMENT_3D('',#791,#792,#793);
#791 = CARTESIAN_POINT('',(-2.564358693591,-3.041142416508,0.));
#792 = DIRECTION('',(0.,-0.,-1.));
#793 = DIRECTION('',(0.645521048637,0.763742480007,0.));
#794 = CARTESIAN_POINT('',(-2.417179894501,-2.867009131066,0.));
#795 = CARTESIAN_POINT('',(-2.385914582404,-3.183063870781,0.));
#796 = TRIMMED_CURVE('',#797,(#801,PARAMETER_VALUE(0.)),(#802,
    PARAMETER_VALUE(0.260590870588)),.T.,.PARAMETER.);
#797 = LINE('',#798,#799);
#798 = CARTESIAN_POINT('',(-2.385914582404,-3.183063870781,0.));
#799 = VECTOR('',#800,1.);
#800 = DIRECTION('',(-0.598347185757,-0.801236947037,0.));
#801 = CARTESIAN_POINT('',(-2.385914582404,-3.183063870781,0.));
#802 = CARTESIAN_POINT('',(-2.541838396455,-3.391858904356,0.));
#803 = TRIMMED_CURVE('',#804,(#809,PARAMETER_VALUE(0.)),(#810,
    PARAMETER_VALUE(1.)),.T.,.PARAMETER.);
#804 = B_SPLINE_CURVE_WITH_KNOTS('',3,(#805,#806,#807,#808),
  .UNSPECIFIED.,.F.,.F.,(4,4),(0.,1.),.PIECEWISE_BEZIER_KNOTS.);
#805 = CARTESIAN_POINT('',(-2.541838396455,-3.391858904356,0.));
#806 = CARTESIAN_POINT('',(-2.556034985245,-3.413769415863,0.));
#807 = CARTESIAN_POINT('',(-2.595659413643,-3.48139382474,0.));
#808 = CARTESIAN_POINT('',(-2.635897192104,-3.609672180058,0.));
#809 = CARTESIAN_POINT('',(-2.541838396455,-3.391858904356,0.));
#810 = CARTESIAN_POINT('',(-2.635897192104,-3.609672180058,0.));
#811 = TRIMMED_CURVE('',#812,(#817,PARAMETER_VALUE(0.)),(#818,
    PARAMETER_VALUE(1.)),.T.,.PARAMETER.);
#812 = B_SPLINE_CURVE_WITH_KNOTS('',3,(#813,#814,#815,#816),
  .UNSPECIFIED.,.F.,.F.,(4,4),(0.,1.),.PIECEWISE_BEZIER_KNOTS.);
#813 = CARTESIAN_POINT('',(-2.635897192104,-3.609672180058,0.));
#814 = CARTESIAN_POINT('',(-2.683299871028,-3.763102519309,0.));
#815 = CARTESIAN_POINT('',(-2.727991595608,-3.996081783397,0.));
#816 = CARTESIAN_POINT('',(-2.718707044776,-4.315797180793,0.));
#817 = CARTESIAN_POINT('',(-2.635897192104,-3.609672180058,0.));
#818 = CARTESIAN_POINT('',(-2.718707044776,-4.315797180793,0.));
#819 = TRIMMED_CURVE('',#820,(#825,PARAMETER_VALUE(0.)),(#826,
    PARAMETER_VALUE(7.716430428154E-02)),.T.,.PARAMETER.);
#820 = CIRCLE('',#821,5.1);
#821 = AXIS2_PLACEMENT_3D('',#822,#823,#824);
#822 = CARTESIAN_POINT('',(-8.412229453451E-03,4.42295411205E-03,0.));
#823 = DIRECTION('',(0.,0.,1.));
#824 = DIRECTION('',(-0.531430355946,-0.847101987236,0.));
#825 = CARTESIAN_POINT('',(-2.718707044776,-4.315797180793,0.));
#826 = CARTESIAN_POINT('',(-2.377606002866,-4.511872083197,0.));
#827 = TRIMMED_CURVE('',#828,(#833,PARAMETER_VALUE(0.)),(#834,
    PARAMETER_VALUE(1.)),.T.,.PARAMETER.);
#828 = B_SPLINE_CURVE_WITH_KNOTS('',3,(#829,#830,#831,#832),
  .UNSPECIFIED.,.F.,.F.,(4,4),(0.,1.),.PIECEWISE_BEZIER_KNOTS.);
#829 = CARTESIAN_POINT('',(-2.377606002866,-4.511872083197,0.));
#830 = CARTESIAN_POINT('',(-2.096712542218,-4.360550914806,0.));
#831 = CARTESIAN_POINT('',(-1.917292443253,-4.205357113936,0.));
#832 = CARTESIAN_POINT('',(-1.808119211212,-4.087590020155,0.));
#833 = CARTESIAN_POINT('',(-2.377606002866,-4.511872083197,0.));
#834 = CARTESIAN_POINT('',(-1.808119211212,-4.087590020155,0.));
#835 = TRIMMED_CURVE('',#836,(#841,PARAMETER_VALUE(0.)),(#842,
    PARAMETER_VALUE(1.)),.T.,.PARAMETER.);
#836 = B_SPLINE_CURVE_WITH_KNOTS('',3,(#837,#838,#839,#840),
  .UNSPECIFIED.,.F.,.F.,(4,4),(0.,1.),.PIECEWISE_BEZIER_KNOTS.);
#837 = CARTESIAN_POINT('',(-1.808119211212,-4.087590020155,0.));
#838 = CARTESIAN_POINT('',(-1.717145785982,-3.988603904157,0.));
#839 = CARTESIAN_POINT('',(-1.678393544177,-3.920475938115,0.));
#840 = CARTESIAN_POINT('',(-1.666516778998,-3.897226075823,0.));
#841 = CARTESIAN_POINT('',(-1.808119211212,-4.087590020155,0.));
#842 = CARTESIAN_POINT('',(-1.666516778998,-3.897226075823,0.));
#843 = TRIMMED_CURVE('',#844,(#848,PARAMETER_VALUE(0.)),(#849,
    PARAMETER_VALUE(0.260590870588)),.T.,.PARAMETER.);
#844 = LINE('',#845,#846);
#845 = CARTESIAN_POINT('',(-1.666516778998,-3.897226075823,0.));
#846 = VECTOR('',#847,1.);
#847 = DIRECTION('',(0.394717957706,0.918802336667,0.));
#848 = CARTESIAN_POINT('',(-1.666516778998,-3.897226075823,0.));
#849 = CARTESIAN_POINT('',(-1.563656882763,-3.657794575012,0.));
#850 = TRIMMED_CURVE('',#851,(#856,PARAMETER_VALUE(0.)),(#857,
    PARAMETER_VALUE(1.540976177951)),.T.,.PARAMETER.);
#851 = CIRCLE('',#852,0.228);
#852 = AXIS2_PLACEMENT_3D('',#853,#854,#855);
#853 = CARTESIAN_POINT('',(-1.351527242427,-3.741370981319,0.));
#854 = DIRECTION('',(0.,0.,-1.));
#855 = DIRECTION('',(-0.930393159366,0.366563185555,0.));
#856 = CARTESIAN_POINT('',(-1.563656882763,-3.657794575012,0.));
#857 = CARTESIAN_POINT('',(-1.274312793135,-3.526843759688,0.));
#858 = TRIMMED_CURVE('',#859,(#864,PARAMETER_VALUE(0.)),(#865,
    PARAMETER_VALUE(6.512554984447E-02)),.T.,.PARAMETER.);
#859 = CIRCLE('',#860,3.75);
#860 = AXIS2_PLACEMENT_3D('',#861,#862,#863);
#861 = CARTESIAN_POINT('',(-1.543210004229E-13,-4.736211423051E-13,0.));
#862 = DIRECTION('',(0.,0.,1.));
#863 = DIRECTION('',(-0.339816744836,-0.94049166925,0.));
#864 = CARTESIAN_POINT('',(-1.274312793135,-3.526843759688,0.));
#865 = CARTESIAN_POINT('',(-1.042086043289,-3.602298804705,0.));
#866 = TRIMMED_CURVE('',#867,(#872,PARAMETER_VALUE(0.)),(#873,
    PARAMETER_VALUE(1.540976177951)),.T.,.PARAMETER.);
#867 = CIRCLE('',#868,0.228);
#868 = AXIS2_PLACEMENT_3D('',#869,#870,#871);
#869 = CARTESIAN_POINT('',(-1.10571417869,-3.821240487318,0.));
#870 = DIRECTION('',(0.,0.,-1.));
#871 = DIRECTION('',(0.279070769303,0.960270537776,0.));
#872 = CARTESIAN_POINT('',(-1.042086043289,-3.602298804705,0.));
#873 = CARTESIAN_POINT('',(-0.884972715581,-3.878312428451,0.));
#874 = TRIMMED_CURVE('',#875,(#879,PARAMETER_VALUE(0.)),(#880,
    PARAMETER_VALUE(0.260590870588)),.T.,.PARAMETER.);
#875 = LINE('',#876,#877);
#876 = CARTESIAN_POINT('',(-0.884972715581,-3.878312428451,0.));
#877 = VECTOR('',#878,1.);
#878 = DIRECTION('',(-0.220724927496,-0.975336099189,0.));
#879 = CARTESIAN_POINT('',(-0.884972715581,-3.878312428451,0.));
#880 = CARTESIAN_POINT('',(-0.942491616598,-4.132476111655,0.));
#881 = TRIMMED_CURVE('',#882,(#887,PARAMETER_VALUE(0.)),(#888,
    PARAMETER_VALUE(1.)),.T.,.PARAMETER.);
#882 = B_SPLINE_CURVE_WITH_KNOTS('',3,(#883,#884,#885,#886),
  .UNSPECIFIED.,.F.,.F.,(4,4),(0.,1.),.PIECEWISE_BEZIER_KNOTS.);
#883 = CARTESIAN_POINT('',(-0.942491616598,-4.132476111655,0.));
#884 = CARTESIAN_POINT('',(-0.946549037904,-4.158266632783,0.));
#885 = CARTESIAN_POINT('',(-0.955242429421,-4.236161311329,0.));
#886 = CARTESIAN_POINT('',(-0.939825961539,-4.36971559908,0.));
#887 = CARTESIAN_POINT('',(-0.942491616598,-4.132476111655,0.));
#888 = CARTESIAN_POINT('',(-0.939825961539,-4.36971559908,0.));
#889 = TRIMMED_CURVE('',#890,(#895,PARAMETER_VALUE(0.)),(#896,
    PARAMETER_VALUE(1.)),.T.,.PARAMETER.);
#890 = B_SPLINE_CURVE_WITH_KNOTS('',3,(#891,#892,#893,#894),
  .UNSPECIFIED.,.F.,.F.,(4,4),(0.,1.),.PIECEWISE_BEZIER_KNOTS.);
#891 = CARTESIAN_POINT('',(-0.939825961539,-4.36971559908,0.));
#892 = CARTESIAN_POINT('',(-0.920724722417,-4.529161595066,0.));
#893 = CARTESIAN_POINT('',(-0.86679144062,-4.760176505527,0.));
#894 = CARTESIAN_POINT('',(-0.728269613905,-5.048474687519,0.));
#895 = CARTESIAN_POINT('',(-0.939825961539,-4.36971559908,0.));
#896 = CARTESIAN_POINT('',(-0.728269613905,-5.048474687519,0.));
#897 = TRIMMED_CURVE('',#898,(#903,PARAMETER_VALUE(0.)),(#904,
    PARAMETER_VALUE(7.716430428152E-02)),.T.,.PARAMETER.);
#898 = CIRCLE('',#899,5.100000000002);
#899 = AXIS2_PLACEMENT_3D('',#900,#901,#902);
#900 = CARTESIAN_POINT('',(-9.483931513697E-03,6.190076714714E-04,0.));
#901 = DIRECTION('',(0.,0.,1.));
#902 = DIRECTION('',(-0.140938369096,-0.990018371606,0.));
#903 = CARTESIAN_POINT('',(-0.728269613905,-5.048474687519,0.));
#904 = CARTESIAN_POINT('',(-0.336907458875,-5.088859731232,0.));
#905 = TRIMMED_CURVE('',#906,(#911,PARAMETER_VALUE(0.)),(#912,
    PARAMETER_VALUE(1.)),.T.,.PARAMETER.);
#906 = B_SPLINE_CURVE_WITH_KNOTS('',3,(#907,#908,#909,#910),
  .UNSPECIFIED.,.F.,.F.,(4,4),(0.,1.),.PIECEWISE_BEZIER_KNOTS.);
#907 = CARTESIAN_POINT('',(-0.336907458875,-5.088859731232,0.));
#908 = CARTESIAN_POINT('',(-0.141846377876,-4.836371301957,0.));
#909 = CARTESIAN_POINT('',(-4.106096704873E-02,-4.621617981365,0.));
#910 = CARTESIAN_POINT('',(1.077355078941E-02,-4.469627633867,0.));
#911 = CARTESIAN_POINT('',(-0.336907458875,-5.088859731232,0.));
#912 = CARTESIAN_POINT('',(1.077355078941E-02,-4.469627633867,0.));
#913 = TRIMMED_CURVE('',#914,(#919,PARAMETER_VALUE(0.)),(#920,
    PARAMETER_VALUE(1.)),.T.,.PARAMETER.);
#914 = B_SPLINE_CURVE_WITH_KNOTS('',3,(#915,#916,#917,#918),
  .UNSPECIFIED.,.F.,.F.,(4,4),(0.,1.),.PIECEWISE_BEZIER_KNOTS.);
#915 = CARTESIAN_POINT('',(1.077355078941E-02,-4.469627633867,0.));
#916 = CARTESIAN_POINT('',(5.362062964217E-02,-4.34219709164,0.));
#917 = CARTESIAN_POINT('',(6.131242390929E-02,-4.264197140981,0.));
#918 = CARTESIAN_POINT('',(6.270581784889E-02,-4.238126619293,0.));
#919 = CARTESIAN_POINT('',(1.077355078941E-02,-4.469627633867,0.));
#920 = CARTESIAN_POINT('',(6.270581784889E-02,-4.238126619293,0.));
#921 = TRIMMED_CURVE('',#922,(#926,PARAMETER_VALUE(0.)),(#927,
    PARAMETER_VALUE(0.260590870588)),.T.,.PARAMETER.);
#922 = LINE('',#923,#924);
#923 = CARTESIAN_POINT('',(6.270581784889E-02,-4.238126619293,0.));
#924 = VECTOR('',#925,1.);
#925 = DIRECTION('',(-1.311778075385E-02,0.999913958212,0.));
#926 = CARTESIAN_POINT('',(6.270581784889E-02,-4.238126619293,0.));
#927 = CARTESIAN_POINT('',(5.928744394207E-02,-3.977558170409,0.));
#928 = TRIMMED_CURVE('',#929,(#934,PARAMETER_VALUE(0.)),(#935,
    PARAMETER_VALUE(1.540976177951)),.T.,.PARAMETER.);
#929 = CIRCLE('',#930,0.228);
#930 = AXIS2_PLACEMENT_3D('',#931,#932,#933);
#931 = CARTESIAN_POINT('',(0.287071100243,-3.96762811895,0.));
#932 = DIRECTION('',(0.,0.,-1.));
#933 = DIRECTION('',(-0.999051124129,-4.355285727833E-02,-0.));
#934 = CARTESIAN_POINT('',(5.928744394207E-02,-3.977558170409,0.));
#935 = CARTESIAN_POINT('',(0.270353927684,-3.740241804187,0.));
#936 = TRIMMED_CURVE('',#937,(#942,PARAMETER_VALUE(0.)),(#943,
    PARAMETER_VALUE(6.512554984446E-02)),.T.,.PARAMETER.);
#937 = CIRCLE('',#938,3.75);
#938 = AXIS2_PLACEMENT_3D('',#939,#940,#941);
#939 = CARTESIAN_POINT('',(-3.819167204711E-14,3.250733016102E-13,0.));
#940 = DIRECTION('',(0.,0.,1.));
#941 = DIRECTION('',(7.209438071581E-02,-0.99739781445,0.));
#942 = CARTESIAN_POINT('',(0.270353927684,-3.740241804187,0.));
#943 = CARTESIAN_POINT('',(0.513193951862,-3.714718289154,0.));
#944 = TRIMMED_CURVE('',#945,(#950,PARAMETER_VALUE(0.)),(#951,
    PARAMETER_VALUE(1.540976177951)),.T.,.PARAMETER.);
#945 = CIRCLE('',#946,0.228);
#946 = AXIS2_PLACEMENT_3D('',#947,#948,#949);
#947 = CARTESIAN_POINT('',(0.544118362804,-3.940611362991,0.));
#948 = DIRECTION('',(0.,0.,-1.));
#949 = DIRECTION('',(-0.135633381322,0.99075909578,0.));
#950 = CARTESIAN_POINT('',(0.513193951862,-3.714718289154,0.));
#951 = CARTESIAN_POINT('',(0.76898897349,-3.902965533879,0.));
#952 = TRIMMED_CURVE('',#953,(#957,PARAMETER_VALUE(0.)),(#958,
    PARAMETER_VALUE(0.260590870588)),.T.,.PARAMETER.);
#953 = LINE('',#954,#955);
#954 = CARTESIAN_POINT('',(0.76898897349,-3.902965533879,0.));
#955 = VECTOR('',#956,1.);
#956 = DIRECTION('',(0.195062675953,-0.980790779142,0.));
#957 = CARTESIAN_POINT('',(0.76898897349,-3.902965533879,0.));
#958 = CARTESIAN_POINT('',(0.819820526036,-4.158550656881,0.));
#959 = TRIMMED_CURVE('',#960,(#965,PARAMETER_VALUE(0.)),(#966,
    PARAMETER_VALUE(1.)),.T.,.PARAMETER.);
#960 = B_SPLINE_CURVE_WITH_KNOTS('',3,(#961,#962,#963,#964),
  .UNSPECIFIED.,.F.,.F.,(4,4),(0.,1.),.PIECEWISE_BEZIER_KNOTS.);
#961 = CARTESIAN_POINT('',(0.819820526036,-4.158550656881,0.));
#962 = CARTESIAN_POINT('',(0.82660383722,-4.18376177223,0.));
#963 = CARTESIAN_POINT('',(0.850344648953,-4.258458022873,0.));
#964 = CARTESIAN_POINT('',(0.918749715827,-4.374195493401,0.));
#965 = CARTESIAN_POINT('',(0.819820526036,-4.158550656881,0.));
#966 = CARTESIAN_POINT('',(0.918749715827,-4.374195493401,0.));
#967 = TRIMMED_CURVE('',#968,(#973,PARAMETER_VALUE(0.)),(#974,
    PARAMETER_VALUE(1.)),.T.,.PARAMETER.);
#968 = B_SPLINE_CURVE_WITH_KNOTS('',3,(#969,#970,#971,#972),
  .UNSPECIFIED.,.F.,.F.,(4,4),(0.,1.),.PIECEWISE_BEZIER_KNOTS.);
#969 = CARTESIAN_POINT('',(0.918749715827,-4.374195493401,0.));
#970 = CARTESIAN_POINT('',(1.001052095222,-4.512087484895,0.));
#971 = CARTESIAN_POINT('',(1.144284829005,-4.701193465006,0.));
#972 = CARTESIAN_POINT('',(1.388092249333,-4.90822505682,0.));
#973 = CARTESIAN_POINT('',(0.918749715827,-4.374195493401,0.));
#974 = CARTESIAN_POINT('',(1.388092249333,-4.90822505682,0.));
#975 = TRIMMED_CURVE('',#976,(#981,PARAMETER_VALUE(0.)),(#982,
    PARAMETER_VALUE(7.716430428154E-02)),.T.,.PARAMETER.);
#976 = CIRCLE('',#977,5.100000000001);
#977 = AXIS2_PLACEMENT_3D('',#978,#979,#980);
#978 = CARTESIAN_POINT('',(-8.915775656833E-03,-3.291970821777E-03,0.));
#979 = DIRECTION('',(0.,0.,1.));
#980 = DIRECTION('',(0.273923142155,-0.96175158549,0.));
#981 = CARTESIAN_POINT('',(1.388092249333,-4.90822505682,0.));
#982 = CARTESIAN_POINT('',(1.762045445464,-4.785937300897,0.));
#983 = TRIMMED_CURVE('',#984,(#989,PARAMETER_VALUE(0.)),(#990,
    PARAMETER_VALUE(1.)),.T.,.PARAMETER.);
#984 = B_SPLINE_CURVE_WITH_KNOTS('',3,(#985,#986,#987,#988),
  .UNSPECIFIED.,.F.,.F.,(4,4),(0.,1.),.PIECEWISE_BEZIER_KNOTS.);
#985 = CARTESIAN_POINT('',(1.762045445464,-4.785937300897,0.));
#986 = CARTESIAN_POINT('',(1.837546313834,-4.475939153945,0.));
#987 = CARTESIAN_POINT('',(1.842270323385,-4.238759113734,0.));
#988 = CARTESIAN_POINT('',(1.827803467984,-4.078826024391,0.));
#989 = CARTESIAN_POINT('',(1.762045445464,-4.785937300897,0.));
#990 = CARTESIAN_POINT('',(1.827803467984,-4.078826024391,0.));
#991 = TRIMMED_CURVE('',#992,(#997,PARAMETER_VALUE(0.)),(#998,
    PARAMETER_VALUE(1.)),.T.,.PARAMETER.);
#992 = B_SPLINE_CURVE_WITH_KNOTS('',3,(#993,#994,#995,#996),
  .UNSPECIFIED.,.F.,.F.,(4,4),(0.,1.),.PIECEWISE_BEZIER_KNOTS.);
#993 = CARTESIAN_POINT('',(1.827803467984,-4.078826024391,0.));
#994 = CARTESIAN_POINT('',(1.815115551273,-3.944984954356,0.));
#995 = CARTESIAN_POINT('',(1.790416916895,-3.870599919156,0.));
#996 = CARTESIAN_POINT('',(1.781086009125,-3.846216568116,0.));
#997 = CARTESIAN_POINT('',(1.827803467984,-4.078826024391,0.));
#998 = CARTESIAN_POINT('',(1.781086009125,-3.846216568116,0.));
#999 = TRIMMED_CURVE('',#1000,(#1004,PARAMETER_VALUE(0.)),(#1005,
    PARAMETER_VALUE(0.260590870588)),.T.,.PARAMETER.);
#1000 = LINE('',#1001,#1002);
#1001 = CARTESIAN_POINT('',(1.781086009125,-3.846216568116,0.));
#1002 = VECTOR('',#1003,1.);
#1003 = DIRECTION('',(-0.41868533575,0.90813137245,0.));
#1004 = CARTESIAN_POINT('',(1.781086009125,-3.846216568116,0.));
#1005 = CARTESIAN_POINT('',(1.67198043298,-3.609565823161,0.));
#1006 = TRIMMED_CURVE('',#1007,(#1012,PARAMETER_VALUE(0.)),(#1013,
    PARAMETER_VALUE(1.540976177951)),.T.,.PARAMETER.);
#1007 = CIRCLE('',#1008,0.228);
#1008 = AXIS2_PLACEMENT_3D('',#1009,#1010,#1011);
#1009 = CARTESIAN_POINT('',(1.876032241723,-3.507846310045,0.));
#1010 = DIRECTION('',(0.,0.,-1.));
#1011 = DIRECTION('',(-0.894964073435,-0.446138215423,-0.));
#1012 = CARTESIAN_POINT('',(1.67198043298,-3.609565823161,0.));
#1013 = CARTESIAN_POINT('',(1.768273998318,-3.306918061711,0.));
#1014 = TRIMMED_CURVE('',#1015,(#1020,PARAMETER_VALUE(0.)),(#1021,
    PARAMETER_VALUE(6.512554984446E-02)),.T.,.PARAMETER.);
#1015 = CIRCLE('',#1016,3.75);
#1016 = AXIS2_PLACEMENT_3D('',#1017,#1018,#1019);
#1017 = CARTESIAN_POINT('',(-1.914024494454E-13,3.279598814743E-13,0.));
#1018 = DIRECTION('',(0.,0.,1.));
#1019 = DIRECTION('',(0.471539732885,-0.881844816456,0.));
#1020 = CARTESIAN_POINT('',(1.768273998318,-3.306918061711,0.));
#1021 = CARTESIAN_POINT('',(1.979738050516,-3.184829234251,0.));
#1022 = TRIMMED_CURVE('',#1023,(#1028,PARAMETER_VALUE(0.)),(#1029,
    PARAMETER_VALUE(1.540976177951)),.T.,.PARAMETER.);
#1023 = CIRCLE('',#1024,0.228);
#1024 = AXIS2_PLACEMENT_3D('',#1025,#1026,#1027);
#1025 = CARTESIAN_POINT('',(2.099867896209,-3.378614734673,0.));
#1026 = DIRECTION('',(0.,0.,-1.));
#1027 = DIRECTION('',(-0.526885288126,0.84993640536,0.));
#1028 = CARTESIAN_POINT('',(1.979738050516,-3.184829234251,0.));
#1029 = CARTESIAN_POINT('',(2.289985483,-3.252760441171,0.));
#1030 = TRIMMED_CURVE('',#1031,(#1035,PARAMETER_VALUE(0.)),(#1036,
    PARAMETER_VALUE(0.260590870588)),.T.,.PARAMETER.);
#1031 = LINE('',#1032,#1033);
#1032 = CARTESIAN_POINT('',(2.289985483,-3.252760441171,0.));
#1033 = VECTOR('',#1034,1.);
#1034 = DIRECTION('',(0.57712217064,-0.816657823177,0.));
#1035 = CARTESIAN_POINT('',(2.289985483,-3.252760441171,0.));
#1036 = CARTESIAN_POINT('',(2.440378251883,-3.465574014286,0.));
#1037 = TRIMMED_CURVE('',#1038,(#1043,PARAMETER_VALUE(0.)),(#1044,
    PARAMETER_VALUE(1.)),.T.,.PARAMETER.);
#1038 = B_SPLINE_CURVE_WITH_KNOTS('',3,(#1039,#1040,#1041,#1042),
  .UNSPECIFIED.,.F.,.F.,(4,4),(0.,1.),.PIECEWISE_BEZIER_KNOTS.);
#1039 = CARTESIAN_POINT('',(2.440378251883,-3.465574014286,0.));
#1040 = CARTESIAN_POINT('',(2.456829399427,-3.485846492975,0.));
#1041 = CARTESIAN_POINT('',(2.508899412384,-3.544428655385,0.));
#1042 = CARTESIAN_POINT('',(2.618465220748,-3.622337248595,0.));
#1043 = CARTESIAN_POINT('',(2.440378251883,-3.465574014286,0.));
#1044 = CARTESIAN_POINT('',(2.618465220748,-3.622337248595,0.));
#1045 = TRIMMED_CURVE('',#1046,(#1051,PARAMETER_VALUE(0.)),(#1052,
    PARAMETER_VALUE(1.)),.T.,.PARAMETER.);
#1046 = B_SPLINE_CURVE_WITH_KNOTS('',3,(#1047,#1048,#1049,#1050),
  .UNSPECIFIED.,.F.,.F.,(4,4),(0.,1.),.PIECEWISE_BEZIER_KNOTS.);
#1047 = CARTESIAN_POINT('',(2.618465220748,-3.622337248595,0.));
#1048 = CARTESIAN_POINT('',(2.749737911324,-3.714832457557,0.));
#1049 = CARTESIAN_POINT('',(2.957503856193,-3.829331365383,0.));
#1050 = CARTESIAN_POINT('',(3.264440352238,-3.919298723972,0.));
#1051 = CARTESIAN_POINT('',(2.618465220748,-3.622337248595,0.));
#1052 = CARTESIAN_POINT('',(3.264440352238,-3.919298723972,0.));
#1053 = TRIMMED_CURVE('',#1054,(#1059,PARAMETER_VALUE(0.)),(#1060,
    PARAMETER_VALUE(7.716430428154E-02)),.T.,.PARAMETER.);
#1054 = CIRCLE('',#1055,5.1);
#1055 = AXIS2_PLACEMENT_3D('',#1056,#1057,#1058);
#1056 = CARTESIAN_POINT('',(-6.806001191165E-03,-6.633737652396E-03,0.)
  );
#1057 = DIRECTION('',(0.,0.,1.));
#1058 = DIRECTION('',(0.641420853614,-0.767189213004,0.));
#1059 = CARTESIAN_POINT('',(3.264440352238,-3.919298723972,0.));
#1060 = CARTESIAN_POINT('',(3.556324684602,-3.655482832362,0.));
#1061 = TRIMMED_CURVE('',#1062,(#1067,PARAMETER_VALUE(0.)),(#1068,
    PARAMETER_VALUE(1.)),.T.,.PARAMETER.);
#1062 = B_SPLINE_CURVE_WITH_KNOTS('',3,(#1063,#1064,#1065,#1066),
  .UNSPECIFIED.,.F.,.F.,(4,4),(0.,1.),.PIECEWISE_BEZIER_KNOTS.);
#1063 = CARTESIAN_POINT('',(3.556324684602,-3.655482832362,0.));
#1064 = CARTESIAN_POINT('',(3.499210554298,-3.341576463586,0.));
#1065 = CARTESIAN_POINT('',(3.407056338406,-3.122980287421,0.));
#1066 = CARTESIAN_POINT('',(3.328789560491,-2.982758340327,0.));
#1067 = CARTESIAN_POINT('',(3.556324684602,-3.655482832362,0.));
#1068 = CARTESIAN_POINT('',(3.328789560491,-2.982758340327,0.));
#1069 = TRIMMED_CURVE('',#1070,(#1075,PARAMETER_VALUE(0.)),(#1076,
    PARAMETER_VALUE(1.)),.T.,.PARAMETER.);
#1070 = B_SPLINE_CURVE_WITH_KNOTS('',3,(#1071,#1072,#1073,#1074),
  .UNSPECIFIED.,.F.,.F.,(4,4),(0.,1.),.PIECEWISE_BEZIER_KNOTS.);
#1071 = CARTESIAN_POINT('',(3.328789560491,-2.982758340327,0.));
#1072 = CARTESIAN_POINT('',(3.262760504281,-2.865649079401,0.));
#1073 = CARTESIAN_POINT('',(3.209942059523,-2.807740808013,0.));
#1074 = CARTESIAN_POINT('',(3.191500248765,-2.789260730532,0.));
#1075 = CARTESIAN_POINT('',(3.328789560491,-2.982758340327,0.));
#1076 = CARTESIAN_POINT('',(3.191500248765,-2.789260730532,0.));
#1077 = TRIMMED_CURVE('',#1078,(#1082,PARAMETER_VALUE(0.)),(#1083,
    PARAMETER_VALUE(0.260590870588)),.T.,.PARAMETER.);
#1078 = LINE('',#1079,#1080);
#1079 = CARTESIAN_POINT('',(3.191500248765,-2.789260730532,0.));
#1080 = VECTOR('',#1081,1.);
#1081 = DIRECTION('',(-0.751858392558,0.659324622276,0.));
#1082 = CARTESIAN_POINT('',(3.191500248765,-2.789260730532,0.));
#1083 = CARTESIAN_POINT('',(2.99557281569,-2.617446753212,0.));
#1084 = TRIMMED_CURVE('',#1085,(#1090,PARAMETER_VALUE(0.)),(#1091,
    PARAMETER_VALUE(1.540976177951)),.T.,.PARAMETER.);
#1085 = CIRCLE('',#1086,0.228);
#1086 = AXIS2_PLACEMENT_3D('',#1087,#1088,#1089);
#1087 = CARTESIAN_POINT('',(3.14061036539,-2.441526006349,0.));
#1088 = DIRECTION('',(0.,0.,-1.));
#1089 = DIRECTION('',(-0.636129603951,-0.771582223083,-0.));
#1090 = CARTESIAN_POINT('',(2.99557281569,-2.617446753212,0.));
#1091 = CARTESIAN_POINT('',(2.960443430378,-2.301798143958,0.));
#1092 = TRIMMED_CURVE('',#1093,(#1098,PARAMETER_VALUE(0.)),(#1099,
    PARAMETER_VALUE(6.512554984447E-02)),.T.,.PARAMETER.);
#1093 = CIRCLE('',#1094,3.749999999999);
#1094 = AXIS2_PLACEMENT_3D('',#1095,#1096,#1097);
#1095 = CARTESIAN_POINT('',(4.090061622719E-13,-2.944311461306E-13,0.));
#1096 = DIRECTION('',(0.,0.,1.));
#1097 = DIRECTION('',(0.789451581434,-0.613812838389,0.));
#1098 = CARTESIAN_POINT('',(2.960443430378,-2.301798143958,0.));
#1099 = CARTESIAN_POINT('',(3.10396745488,-2.104254271481,0.));
#1100 = TRIMMED_CURVE('',#1101,(#1106,PARAMETER_VALUE(0.)),(#1107,
    PARAMETER_VALUE(1.540976177951)),.T.,.PARAMETER.);
#1101 = CIRCLE('',#1102,0.228);
#1102 = AXIS2_PLACEMENT_3D('',#1103,#1104,#1105);
#1103 = CARTESIAN_POINT('',(3.292531193658,-2.232424924978,0.));
#1104 = DIRECTION('',(0.,0.,-1.));
#1105 = DIRECTION('',(-0.82703394201,0.562151989023,0.));
#1106 = CARTESIAN_POINT('',(3.10396745488,-2.104254271481,0.));
#1107 = CARTESIAN_POINT('',(3.415022698634,-2.040123517784,0.));
#1108 = TRIMMED_CURVE('',#1109,(#1113,PARAMETER_VALUE(0.)),(#1114,
    PARAMETER_VALUE(0.260590870588)),.T.,.PARAMETER.);
#1109 = LINE('',#1110,#1111);
#1110 = CARTESIAN_POINT('',(3.415022698634,-2.040123517784,0.));
#1111 = VECTOR('',#1112,1.);
#1112 = DIRECTION('',(0.859391999034,-0.51131731048,0.));
#1113 = CARTESIAN_POINT('',(3.415022698634,-2.040123517784,0.));
#1114 = CARTESIAN_POINT('',(3.638972407838,-2.173368140869,0.));
#1115 = TRIMMED_CURVE('',#1116,(#1121,PARAMETER_VALUE(0.)),(#1122,
    PARAMETER_VALUE(1.)),.T.,.PARAMETER.);
#1116 = B_SPLINE_CURVE_WITH_KNOTS('',3,(#1117,#1118,#1119,#1120),
  .UNSPECIFIED.,.F.,.F.,(4,4),(0.,1.),.PIECEWISE_BEZIER_KNOTS.);
#1117 = CARTESIAN_POINT('',(3.638972407838,-2.173368140869,0.));
#1118 = CARTESIAN_POINT('',(3.66224683888,-2.185196687164,0.));
#1119 = CARTESIAN_POINT('',(3.733642674778,-2.217535373257,0.));
#1120 = CARTESIAN_POINT('',(3.865424300991,-2.244143985606,0.));
#1121 = CARTESIAN_POINT('',(3.638972407838,-2.173368140869,0.));
#1122 = CARTESIAN_POINT('',(3.865424300991,-2.244143985606,0.));
#1123 = TRIMMED_CURVE('',#1124,(#1129,PARAMETER_VALUE(0.)),(#1130,
    PARAMETER_VALUE(1.)),.T.,.PARAMETER.);
#1124 = B_SPLINE_CURVE_WITH_KNOTS('',3,(#1125,#1126,#1127,#1128),
  .UNSPECIFIED.,.F.,.F.,(4,4),(0.,1.),.PIECEWISE_BEZIER_KNOTS.);
#1125 = CARTESIAN_POINT('',(3.865424300991,-2.244143985606,0.));
#1126 = CARTESIAN_POINT('',(4.022969061973,-2.275249150114,0.));
#1127 = CARTESIAN_POINT('',(4.259343598567,-2.295343084302,0.));
#1128 = CARTESIAN_POINT('',(4.576337061732,-2.252690036039,0.));
#1129 = CARTESIAN_POINT('',(3.865424300991,-2.244143985606,0.));
#1130 = CARTESIAN_POINT('',(4.576337061732,-2.252690036039,0.));
#1131 = TRIMMED_CURVE('',#1132,(#1137,PARAMETER_VALUE(0.)),(#1138,
    PARAMETER_VALUE(7.716430428154E-02)),.T.,.PARAMETER.);
#1132 = CIRCLE('',#1133,5.1);
#1133 = AXIS2_PLACEMENT_3D('',#1134,#1135,#1136);
#1134 = CARTESIAN_POINT('',(-3.519407289195E-03,-8.82847097677E-03,0.));
#1135 = DIRECTION('',(0.,0.,1.));
#1136 = DIRECTION('',(0.898011072357,-0.439972855895,0.));
#1137 = CARTESIAN_POINT('',(4.576337061732,-2.252690036039,0.));
#1138 = CARTESIAN_POINT('',(4.735683077576,-1.892962173092,0.));
#1139 = TRIMMED_CURVE('',#1140,(#1145,PARAMETER_VALUE(0.)),(#1146,
    PARAMETER_VALUE(1.)),.T.,.PARAMETER.);
#1140 = B_SPLINE_CURVE_WITH_KNOTS('',3,(#1141,#1142,#1143,#1144),
  .UNSPECIFIED.,.F.,.F.,(4,4),(0.,1.),.PIECEWISE_BEZIER_KNOTS.);
#1141 = CARTESIAN_POINT('',(4.735683077576,-1.892962173092,0.));
#1142 = CARTESIAN_POINT('',(4.555829500594,-1.629424845404,0.));
#1143 = CARTESIAN_POINT('',(4.38273136038,-1.467209798028,0.));
#1144 = CARTESIAN_POINT('',(4.254197696886,-1.370944641711,0.));
#1145 = CARTESIAN_POINT('',(4.735683077576,-1.892962173092,0.));
#1146 = CARTESIAN_POINT('',(4.254197696886,-1.370944641711,0.));
#1147 = TRIMMED_CURVE('',#1148,(#1153,PARAMETER_VALUE(0.)),(#1154,
    PARAMETER_VALUE(1.)),.T.,.PARAMETER.);
#1148 = B_SPLINE_CURVE_WITH_KNOTS('',3,(#1149,#1150,#1151,#1152),
  .UNSPECIFIED.,.F.,.F.,(4,4),(0.,1.),.PIECEWISE_BEZIER_KNOTS.);
#1149 = CARTESIAN_POINT('',(4.254197696886,-1.370944641711,0.));
#1150 = CARTESIAN_POINT('',(4.146244524851,-1.290816445013,0.));
#1151 = CARTESIAN_POINT('',(4.074439058651,-1.259397803639,0.));
#1152 = CARTESIAN_POINT('',(4.050075101524,-1.250016373,0.));
#1153 = CARTESIAN_POINT('',(4.254197696886,-1.370944641711,0.));
#1154 = CARTESIAN_POINT('',(4.050075101524,-1.250016373,0.));
#1155 = TRIMMED_CURVE('',#1156,(#1160,PARAMETER_VALUE(0.)),(#1161,
    PARAMETER_VALUE(0.260590870588)),.T.,.PARAMETER.);
#1156 = LINE('',#1157,#1158);
#1157 = CARTESIAN_POINT('',(4.050075101524,-1.250016373,0.));
#1158 = VECTOR('',#1159,1.);
#1159 = DIRECTION('',(-0.955028302874,0.296514655135,0.));
#1160 = CARTESIAN_POINT('',(4.050075101524,-1.250016373,0.));
#1161 = CARTESIAN_POINT('',(3.801203444642,-1.172747360876,0.));
#1162 = TRIMMED_CURVE('',#1163,(#1168,PARAMETER_VALUE(0.)),(#1169,
    PARAMETER_VALUE(1.540976177951)),.T.,.PARAMETER.);
#1163 = CIRCLE('',#1164,0.228);
#1164 = AXIS2_PLACEMENT_3D('',#1165,#1166,#1167);
#1165 = CARTESIAN_POINT('',(3.862148425332,-0.953043675589,0.));
#1166 = DIRECTION('',(0.,0.,-1.));
#1167 = DIRECTION('',(-0.267302546887,-0.963612654767,-0.));
#1168 = CARTESIAN_POINT('',(3.801203444642,-1.172747360876,0.));
#1169 = CARTESIAN_POINT('',(3.640725298542,-0.898676415935,0.));
#1170 = TRIMMED_CURVE('',#1171,(#1176,PARAMETER_VALUE(0.)),(#1177,
    PARAMETER_VALUE(6.512554984447E-02)),.T.,.PARAMETER.);
#1171 = CIRCLE('',#1172,3.75);
#1172 = AXIS2_PLACEMENT_3D('',#1173,#1174,#1175);
#1173 = CARTESIAN_POINT('',(2.648992136756E-13,-6.050715484207E-14,0.));
#1174 = DIRECTION('',(0.,0.,1.));
#1175 = DIRECTION('',(0.970860079611,-0.239647044249,0.));
#1176 = CARTESIAN_POINT('',(3.640725298542,-0.898676415935,0.));
#1177 = CARTESIAN_POINT('',(3.691492687636,-0.659834628622,0.));
#1178 = TRIMMED_CURVE('',#1179,(#1184,PARAMETER_VALUE(0.)),(#1185,
    PARAMETER_VALUE(1.540976177951)),.T.,.PARAMETER.);
#1179 = CIRCLE('',#1180,0.228);
#1180 = AXIS2_PLACEMENT_3D('',#1181,#1182,#1183);
#1181 = CARTESIAN_POINT('',(3.915885936018,-0.700228564811,0.));
#1182 = DIRECTION('',(0.,0.,-1.));
#1183 = DIRECTION('',(-0.984180913954,0.177166386794,0.));
#1184 = CARTESIAN_POINT('',(3.691492687636,-0.659834628622,0.));
#1185 = CARTESIAN_POINT('',(3.949571465167,-0.474730704231,0.));
#1186 = ( GEOMETRIC_REPRESENTATION_CONTEXT(3) 
GLOBAL_UNCERTAINTY_ASSIGNED_CONTEXT((#1190)) 
GLOBAL_UNIT_ASSIGNED_CONTEXT((#1187,#1188,#1189)) REPRESENTATION_CONTEXT
('Context #1','3D Context with UNIT and UNCERTAINTY') );
#1187 = ( LENGTH_UNIT() NAMED_UNIT(*) SI_UNIT(.MILLI.,.METRE.) );
#1188 = ( NAMED_UNIT(*) PLANE_ANGLE_UNIT() SI_UNIT($,.RADIAN.) );
#1189 = ( NAMED_UNIT(*) SI_UNIT($,.STERADIAN.) SOLID_ANGLE_UNIT() );
#1190 = UNCERTAINTY_MEASURE_WITH_UNIT(LENGTH_MEASURE(1.E-07),#1187,
  'distance_accuracy_value','confusion accuracy');
#1191 = PRODUCT_RELATED_PRODUCT_CATEGORY('part',$,(#7));
#1192 = MECHANICAL_DESIGN_GEOMETRIC_PRESENTATION_REPRESENTATION('',(
    #1193),#1186);
#1193 = STYLED_ITEM('color',(#1194),#15);
#1194 = PRESENTATION_STYLE_ASSIGNMENT((#1195,#1201));
#1195 = SURFACE_STYLE_USAGE(.BOTH.,#1196);
#1196 = SURFACE_SIDE_STYLE('',(#1197));
#1197 = SURFACE_STYLE_FILL_AREA(#1198);
#1198 = FILL_AREA_STYLE('',(#1199));
#1199 = FILL_AREA_STYLE_COLOUR('',#1200);
#1200 = COLOUR_RGB('',0.678430976034,0.709803998361,0.741176010593);
#1201 = CURVE_STYLE('',#1202,POSITIVE_LENGTH_MEASURE(0.1),#1203);
#1202 = DRAUGHTING_PRE_DEFINED_CURVE_FONT('continuous');
#1203 = COLOUR_RGB('',9.803921802644E-02,9.803921802644E-02,
  9.803921802644E-02);
ENDSEC;
END-ISO-10303-21;
