#VRML V2.0 utf8


Group {
  children 
    DEF o0 Group {
      children 
        DEF o1 Group {
          children 
            DEF o2 Transform {
              translation -0 -0 -0
              rotation 0 0 1  0
              scale 1 1 1
              scaleOrientation 0 0 1  0
              center 0 0 0
              children 
                DEF o3 Group {
                  children [ 
                    DEF o4 Group {
                      children 
                        DEF o5 Transform {
                          translation 0 0 0
                          rotation 0 0 1  0
                          scale 1 1 1
                          scaleOrientation 0 0 1  0
                          center 0 0 0

                        }

                    },
                      
                    DEF o6 Group {
                      children 
                        DEF o7 Transform {
                          translation 0 0 0
                          rotation 0 0 1  0
                          scale 1 1 1
                          scaleOrientation 0 0 1  0
                          center 0 0 0
                          children 
                            DEF o8 Group {

                            }

                        }

                    },
                      
                    DEF o9 Group {
                      children 
                        DEF o10 Transform {
                          translation 0 0 0
                          rotation 0 0 1  0
                          scale 1 1 1
                          scaleOrientation 0 0 1  0
                          center 0 0 0

                        }

                    },
                      
                    DEF o11 Group {
                      children 
                        DEF o12 Transform {
                          translation 0 0 0
                          rotation 1 0 0  3.1415927
                          scale 1 1 1
                          scaleOrientation 0 0 1  0
                          center 0 0 0
                          children 
                            DEF o13 Group {

                            }

                        }

                    },
                      
                    DEF o14 Group {
                      children 
                        DEF o15 Transform {
                          translation 0 0 0
                          rotation 0 0 1  0
                          scale 1 1 1
                          scaleOrientation 0 0 1  0
                          center 0 0 0
                          children 
                            DEF o16 Group {
                              children [ 
                                DEF o17 Group {
                                  children 
                                    DEF o18 Shape {
                                      appearance 
                                      Appearance {
                                        material 
                                        Material {
                                          emissiveColor 0.098039217 0.098039217 0.098039217

                                        }

                                      }
                                      geometry 
                                      PointSet {
                                        coord 
                                        DEF o19 Coordinate {
                                          point [ 2.5 7 0,
                                              2.5 7 14,
                                              -2.5 7 14,
                                              -2.5 7 0,
                                              2.5 -7 0,
                                              2.5 -7 14,
                                              2.5 7 14,
                                              2.5 7 0,
                                              -2.5 7 0,
                                              -2.5 7 14,
                                              -2.5 -7 14,
                                              -2.5 -7 0,
                                              2.5 7 0,
                                              -2.5 7 0,
                                              -2.5 -7 0,
                                              2.5 -7 0,
                                              0.40000001 -4.5 0,
                                              0.38837671 -4.5957265 0,
                                              0.35418242 -4.6858892 0,
                                              0.29940429 -4.7652493 0,
                                              0.2272259 -4.8291936 0,
                                              0.14184195 -4.8740063 0,
                                              0.04821467 -4.8970838 0,
                                              -0.04821467 -4.8970838 0,
                                              -0.14184195 -4.8740063 0,
                                              -0.2272259 -4.8291936 0,
                                              -0.29940429 -4.7652493 0,
                                              -0.35418242 -4.6858892 0,
                                              -0.38837671 -4.5957265 0,
                                              -0.40000001 -4.5 0,
                                              -0.38837671 -4.4042735 0,
                                              -0.35418242 -4.3141108 0,
                                              -0.29940429 -4.2347507 0,
                                              -0.2272259 -4.1708064 0,
                                              -0.14184195 -4.1259937 0,
                                              -0.04821467 -4.1029162 0,
                                              0.04821467 -4.1029162 0,
                                              0.14184195 -4.1259937 0,
                                              0.2272259 -4.1708064 0,
                                              0.29940429 -4.2347507 0,
                                              0.35418242 -4.3141108 0,
                                              0.38837671 -4.4042735 0,
                                              0.40000001 4.5 0,
                                              0.38837671 4.4042735 0,
                                              0.35418242 4.3141108 0,
                                              0.29940429 4.2347507 0,
                                              0.2272259 4.1708064 0,
                                              0.14184195 4.1259937 0,
                                              0.04821467 4.1029162 0,
                                              -0.04821467 4.1029162 0,
                                              -0.14184195 4.1259937 0,
                                              -0.2272259 4.1708064 0,
                                              -0.29940429 4.2347507 0,
                                              -0.35418242 4.3141108 0,
                                              -0.38837671 4.4042735 0,
                                              -0.40000001 4.5 0,
                                              -0.38837671 4.5957265 0,
                                              -0.35418242 4.6858892 0,
                                              -0.29940429 4.7652493 0,
                                              -0.2272259 4.8291936 0,
                                              -0.14184195 4.8740063 0,
                                              -0.04821467 4.8970838 0,
                                              0.04821467 4.8970838 0,
                                              0.14184195 4.8740063 0,
                                              0.2272259 4.8291936 0,
                                              0.29940429 4.7652493 0,
                                              0.35418242 4.6858892 0,
                                              0.38837671 4.5957265 0,
                                              2.5 7 14,
                                              -2.5 7 14,
                                              -2.5 -7 14,
                                              2.5 -7 14,
                                              -2.5 -7 0,
                                              -2.5 -7 14,
                                              2.5 -7 14,
                                              2.5 -7 0,
                                              0.40000001 -4.5 0,
                                              0.40000001 -4.5 -4,
                                              0.38837671 -4.5957265 -4,
                                              0.35418242 -4.6858892 -4,
                                              0.29940429 -4.7652493 -4,
                                              0.2272259 -4.8291936 -4,
                                              0.14184195 -4.8740063 -4,
                                              0.04821467 -4.8970838 -4,
                                              -0.04821467 -4.8970838 -4,
                                              -0.14184195 -4.8740063 -4,
                                              -0.2272259 -4.8291936 -4,
                                              -0.29940429 -4.7652493 -4,
                                              -0.35418242 -4.6858892 -4,
                                              -0.38837671 -4.5957265 -4,
                                              -0.40000001 -4.5 -4,
                                              -0.38837671 -4.4042735 -4,
                                              -0.35418242 -4.3141108 -4,
                                              -0.29940429 -4.2347507 -4,
                                              -0.2272259 -4.1708064 -4,
                                              -0.14184195 -4.1259937 -4,
                                              -0.04821467 -4.1029162 -4,
                                              0.04821467 -4.1029162 -4,
                                              0.14184195 -4.1259937 -4,
                                              0.2272259 -4.1708064 -4,
                                              0.29940429 -4.2347507 -4,
                                              0.35418242 -4.3141108 -4,
                                              0.38837671 -4.4042735 -4,
                                              0.40000001 -4.5 -4,
                                              0.40000001 -4.5 0,
                                              0.38837671 -4.5957265 0,
                                              0.35418242 -4.6858892 0,
                                              0.29940429 -4.7652493 0,
                                              0.2272259 -4.8291936 0,
                                              0.14184195 -4.8740063 0,
                                              0.04821467 -4.8970838 0,
                                              -0.04821467 -4.8970838 0,
                                              -0.14184195 -4.8740063 0,
                                              -0.2272259 -4.8291936 0,
                                              -0.29940429 -4.7652493 0,
                                              -0.35418242 -4.6858892 0,
                                              -0.38837671 -4.5957265 0,
                                              -0.40000001 -4.5 0,
                                              -0.38837671 -4.4042735 0,
                                              -0.35418242 -4.3141108 0,
                                              -0.29940429 -4.2347507 0,
                                              -0.2272259 -4.1708064 0,
                                              -0.14184195 -4.1259937 0,
                                              -0.04821467 -4.1029162 0,
                                              0.04821467 -4.1029162 0,
                                              0.14184195 -4.1259937 0,
                                              0.2272259 -4.1708064 0,
                                              0.29940429 -4.2347507 0,
                                              0.35418242 -4.3141108 0,
                                              0.38837671 -4.4042735 0,
                                              0.40000001 4.5 0,
                                              0.40000001 4.5 -4,
                                              0.38837671 4.4042735 -4,
                                              0.35418242 4.3141108 -4,
                                              0.29940429 4.2347507 -4,
                                              0.2272259 4.1708064 -4,
                                              0.14184195 4.1259937 -4,
                                              0.04821467 4.1029162 -4,
                                              -0.04821467 4.1029162 -4,
                                              -0.14184195 4.1259937 -4,
                                              -0.2272259 4.1708064 -4,
                                              -0.29940429 4.2347507 -4,
                                              -0.35418242 4.3141108 -4,
                                              -0.38837671 4.4042735 -4,
                                              -0.40000001 4.5 -4,
                                              -0.38837671 4.5957265 -4,
                                              -0.35418242 4.6858892 -4,
                                              -0.29940429 4.7652493 -4,
                                              -0.2272259 4.8291936 -4,
                                              -0.14184195 4.8740063 -4,
                                              -0.04821467 4.8970838 -4,
                                              0.04821467 4.8970838 -4,
                                              0.14184195 4.8740063 -4,
                                              0.2272259 4.8291936 -4,
                                              0.29940429 4.7652493 -4,
                                              0.35418242 4.6858892 -4,
                                              0.38837671 4.5957265 -4,
                                              0.40000001 4.5 -4,
                                              0.40000001 4.5 0,
                                              0.38837671 4.4042735 0,
                                              0.35418242 4.3141108 0,
                                              0.29940429 4.2347507 0,
                                              0.2272259 4.1708064 0,
                                              0.14184195 4.1259937 0,
                                              0.04821467 4.1029162 0,
                                              -0.04821467 4.1029162 0,
                                              -0.14184195 4.1259937 0,
                                              -0.2272259 4.1708064 0,
                                              -0.29940429 4.2347507 0,
                                              -0.35418242 4.3141108 0,
                                              -0.38837671 4.4042735 0,
                                              -0.40000001 4.5 0,
                                              -0.38837671 4.5957265 0,
                                              -0.35418242 4.6858892 0,
                                              -0.29940429 4.7652493 0,
                                              -0.2272259 4.8291936 0,
                                              -0.14184195 4.8740063 0,
                                              -0.04821467 4.8970838 0,
                                              0.04821467 4.8970838 0,
                                              0.14184195 4.8740063 0,
                                              0.2272259 4.8291936 0,
                                              0.29940429 4.7652493 0,
                                              0.35418242 4.6858892 0,
                                              0.38837671 4.5957265 0,
                                              0.40000001 -4.5 -4,
                                              0.38837671 -4.5957265 -4,
                                              0.35418242 -4.6858892 -4,
                                              0.29940429 -4.7652493 -4,
                                              0.2272259 -4.8291936 -4,
                                              0.14184195 -4.8740063 -4,
                                              0.04821467 -4.8970838 -4,
                                              -0.04821467 -4.8970838 -4,
                                              -0.14184195 -4.8740063 -4,
                                              -0.2272259 -4.8291936 -4,
                                              -0.29940429 -4.7652493 -4,
                                              -0.35418242 -4.6858892 -4,
                                              -0.38837671 -4.5957265 -4,
                                              -0.40000001 -4.5 -4,
                                              -0.38837671 -4.4042735 -4,
                                              -0.35418242 -4.3141108 -4,
                                              -0.29940429 -4.2347507 -4,
                                              -0.2272259 -4.1708064 -4,
                                              -0.14184195 -4.1259937 -4,
                                              -0.04821467 -4.1029162 -4,
                                              0.04821467 -4.1029162 -4,
                                              0.14184195 -4.1259937 -4,
                                              0.2272259 -4.1708064 -4,
                                              0.29940429 -4.2347507 -4,
                                              0.35418242 -4.3141108 -4,
                                              0.38837671 -4.4042735 -4,
                                              0.40000001 4.5 -4,
                                              0.38837671 4.4042735 -4,
                                              0.35418242 4.3141108 -4,
                                              0.29940429 4.2347507 -4,
                                              0.2272259 4.1708064 -4,
                                              0.14184195 4.1259937 -4,
                                              0.04821467 4.1029162 -4,
                                              -0.04821467 4.1029162 -4,
                                              -0.14184195 4.1259937 -4,
                                              -0.2272259 4.1708064 -4,
                                              -0.29940429 4.2347507 -4,
                                              -0.35418242 4.3141108 -4,
                                              -0.38837671 4.4042735 -4,
                                              -0.40000001 4.5 -4,
                                              -0.38837671 4.5957265 -4,
                                              -0.35418242 4.6858892 -4,
                                              -0.29940429 4.7652493 -4,
                                              -0.2272259 4.8291936 -4,
                                              -0.14184195 4.8740063 -4,
                                              -0.04821467 4.8970838 -4,
                                              0.04821467 4.8970838 -4,
                                              0.14184195 4.8740063 -4,
                                              0.2272259 4.8291936 -4,
                                              0.29940429 4.7652493 -4,
                                              0.35418242 4.6858892 -4,
                                              0.38837671 4.5957265 -4,
                                              2.5 7 0,
                                              2.5 7 14,
                                              -2.5 7 0,
                                              -2.5 7 14,
                                              2.5 -7 0,
                                              2.5 -7 14,
                                              -2.5 -7 0,
                                              -2.5 -7 14,
                                              0.40000001 -4.5 0,
                                              0.40000001 4.5 0,
                                              0.40000001 -4.5 -4,
                                              0.40000001 4.5 -4 ]

                                        }

                                      }

                                    }

                                },
                                  
                                DEF o20 Group {
                                  children 
                                    DEF o21 Shape {
                                      appearance 
                                      Appearance {
                                        material 
                                        Material {
                                          diffuseColor 0.098039217 0.098039217 0.098039217
                                          shininess 1

                                        }

                                      }
                                      geometry 
                                      IndexedLineSet {
                                        coord 
                                        USE o19
                                        coordIndex [ 0, 1, -1, 3, 2, -1, 0, 3,
                                            -1, 1, 2, -1, 4, 5, -1, 4,
                                            7, -1, 5, 6, -1, 11, 10, -1,
                                            8, 11, -1, 9, 10, -1, 14, 15,
                                            -1, 16, 17, 18, 19, 20, 21, 22,
                                            23, 24, 25, 26, 27, 28, 29, 30,
                                            31, 32, 33, 34, 35, 36, 37, 38,
                                            39, 40, 41, 16, -1, 42, 43, 44,
                                            45, 46, 47, 48, 49, 50, 51, 52,
                                            53, 54, 55, 56, 57, 58, 59, 60,
                                            61, 62, 63, 64, 65, 66, 67, 42,
                                            -1, 70, 71, -1, 104, 103, -1, 77,
                                            78, 79, 80, 81, 82, 83, 84, 85,
                                            86, 87, 88, 89, 90, 91, 92, 93,
                                            94, 95, 96, 97, 98, 99, 100, 101,
                                            102, 103, -1, 158, 157, -1, 131, 132,
                                            133, 134, 135, 136, 137, 138, 139, 140,
                                            141, 142, 143, 144, 145, 146, 147, 148,
                                            149, 150, 151, 152, 153, 154, 155, 156,
                                            157, -1 ]

                                      }

                                    }

                                },
                                  
                                DEF o22 Group {
                                  children 
                                    DEF o23 Shape {
                                      appearance 
                                      Appearance {
                                        material 
                                        Material {

                                        }

                                      }
                                      geometry 
                                      IndexedFaceSet {
                                        coord 
                                        USE o19
                                        coordIndex [ 0, 3, 1, -1, 1, 3, 2, -1,
                                            5, 4, 6, -1, 4, 7, 6, -1,
                                            9, 8, 10, -1, 8, 11, 10, -1,
                                            26, 25, 14, -1, 14, 27, 26, -1,
                                            25, 24, 14, -1, 14, 28, 27, -1,
                                            24, 23, 14, -1, 14, 29, 28, -1,
                                            14, 30, 29, -1, 14, 31, 30, -1,
                                            20, 15, 21, -1, 21, 15, 22, -1,
                                            22, 15, 23, -1, 23, 15, 14, -1,
                                            20, 19, 15, -1, 19, 18, 15, -1,
                                            18, 17, 15, -1, 17, 16, 15, -1,
                                            16, 41, 15, -1, 41, 40, 15, -1,
                                            52, 51, 32, -1, 32, 51, 33, -1,
                                            32, 53, 52, -1, 31, 53, 32, -1,
                                            33, 50, 34, -1, 51, 50, 33, -1,
                                            34, 49, 35, -1, 50, 49, 34, -1,
                                            49, 48, 35, -1, 35, 48, 36, -1,
                                            48, 47, 36, -1, 36, 47, 37, -1,
                                            47, 46, 37, -1, 37, 46, 38, -1,
                                            31, 13, 53, -1, 53, 13, 54, -1,
                                            54, 13, 55, -1, 55, 13, 56, -1,
                                            56, 13, 57, -1, 57, 13, 58, -1,
                                            14, 13, 31, -1, 38, 45, 39, -1,
                                            46, 45, 38, -1, 13, 59, 58, -1,
                                            40, 44, 15, -1, 39, 44, 40, -1,
                                            45, 44, 39, -1, 13, 60, 59, -1,
                                            13, 61, 60, -1, 13, 62, 61, -1,
                                            42, 12, 43, -1, 43, 12, 44, -1,
                                            44, 12, 15, -1, 13, 12, 62, -1,
                                            62, 12, 63, -1, 63, 12, 64, -1,
                                            64, 12, 65, -1, 65, 12, 66, -1,
                                            66, 12, 67, -1, 67, 12, 42, -1,
                                            68, 69, 70, -1, 68, 70, 71, -1,
                                            72, 75, 73, -1, 73, 75, 74, -1,
                                            76, 105, 77, -1, 77, 105, 78, -1,
                                            78, 106, 79, -1, 105, 106, 78, -1,
                                            79, 107, 80, -1, 106, 107, 79, -1,
                                            80, 108, 81, -1, 107, 108, 80, -1,
                                            81, 109, 82, -1, 108, 109, 81, -1,
                                            82, 110, 83, -1, 109, 110, 82, -1,
                                            83, 111, 84, -1, 110, 111, 83, -1,
                                            84, 112, 85, -1, 111, 112, 84, -1,
                                            85, 113, 86, -1, 112, 113, 85, -1,
                                            86, 114, 87, -1, 113, 114, 86, -1,
                                            87, 115, 88, -1, 114, 115, 87, -1,
                                            115, 116, 88, -1, 88, 116, 89, -1,
                                            116, 117, 89, -1, 89, 117, 90, -1,
                                            90, 118, 91, -1, 117, 118, 90, -1,
                                            91, 119, 92, -1, 118, 119, 91, -1,
                                            92, 120, 93, -1, 119, 120, 92, -1,
                                            93, 121, 94, -1, 120, 121, 93, -1,
                                            94, 122, 95, -1, 121, 122, 94, -1,
                                            95, 123, 96, -1, 122, 123, 95, -1,
                                            96, 124, 97, -1, 97, 124, 98, -1,
                                            123, 124, 96, -1, 124, 125, 98, -1,
                                            98, 126, 99, -1, 125, 126, 98, -1,
                                            99, 127, 100, -1, 126, 127, 99, -1,
                                            100, 128, 101, -1, 127, 128, 100, -1,
                                            101, 129, 102, -1, 128, 129, 101, -1,
                                            102, 104, 103, -1, 129, 104, 102, -1,
                                            130, 159, 131, -1, 131, 159, 132, -1,
                                            132, 160, 133, -1, 159, 160, 132, -1,
                                            133, 161, 134, -1, 160, 161, 133, -1,
                                            134, 162, 135, -1, 161, 162, 134, -1,
                                            135, 163, 136, -1, 162, 163, 135, -1,
                                            136, 164, 137, -1, 163, 164, 136, -1,
                                            137, 165, 138, -1, 164, 165, 137, -1,
                                            138, 166, 139, -1, 165, 166, 138, -1,
                                            139, 167, 140, -1, 166, 167, 139, -1,
                                            140, 168, 141, -1, 167, 168, 140, -1,
                                            141, 169, 142, -1, 168, 169, 141, -1,
                                            169, 170, 142, -1, 142, 170, 143, -1,
                                            170, 171, 143, -1, 143, 171, 144, -1,
                                            144, 172, 145, -1, 171, 172, 144, -1,
                                            145, 173, 146, -1, 172, 173, 145, -1,
                                            146, 174, 147, -1, 173, 174, 146, -1,
                                            147, 175, 148, -1, 174, 175, 147, -1,
                                            148, 176, 149, -1, 175, 176, 148, -1,
                                            149, 177, 150, -1, 176, 177, 149, -1,
                                            150, 178, 151, -1, 151, 178, 152, -1,
                                            177, 178, 150, -1, 178, 179, 152, -1,
                                            152, 180, 153, -1, 179, 180, 152, -1,
                                            153, 181, 154, -1, 180, 181, 153, -1,
                                            154, 182, 155, -1, 181, 182, 154, -1,
                                            155, 183, 156, -1, 182, 183, 155, -1,
                                            156, 158, 157, -1, 183, 158, 156, -1,
                                            194, 195, 193, -1, 193, 191, 192, -1,
                                            190, 188, 189, -1, 199, 200, 198, -1,
                                            201, 202, 200, -1, 186, 184, 185, -1,
                                            187, 184, 186, -1, 203, 204, 202, -1,
                                            188, 209, 187, -1, 191, 209, 190, -1,
                                            195, 209, 193, -1, 193, 209, 191, -1,
                                            190, 209, 188, -1, 187, 209, 184, -1,
                                            196, 208, 195, -1, 197, 208, 196, -1,
                                            198, 208, 197, -1, 195, 208, 209, -1,
                                            205, 206, 204, -1, 200, 207, 198, -1,
                                            204, 207, 202, -1, 202, 207, 200, -1,
                                            206, 207, 204, -1, 198, 207, 208, -1,
                                            220, 221, 219, -1, 219, 217, 218, -1,
                                            216, 214, 215, -1, 225, 226, 224, -1,
                                            227, 228, 226, -1, 212, 210, 211, -1,
                                            213, 210, 212, -1, 229, 230, 228, -1,
                                            214, 235, 213, -1, 217, 235, 216, -1,
                                            221, 235, 219, -1, 219, 235, 217, -1,
                                            216, 235, 214, -1, 213, 235, 210, -1,
                                            222, 234, 221, -1, 223, 234, 222, -1,
                                            224, 234, 223, -1, 221, 234, 235, -1,
                                            231, 232, 230, -1, 226, 233, 224, -1,
                                            230, 233, 228, -1, 228, 233, 226, -1,
                                            232, 233, 230, -1, 224, 233, 234, -1 ]
                                        ccw TRUE
                                        solid FALSE
                                        convex TRUE
                                        creaseAngle 0

                                      }

                                    }

                                } ]

                            }

                        }

                    } ]

                }

            }

        }

    }

}
