#VRML V2.0 utf8


Group {
  children 
    DEF o0 Group {
      children [ 
        DEF o1 Group {
          children 
            DEF o2 Transform {
              translation 0 0 0
              rotation 0 0 1  0
              scale 1 1 1
              scaleOrientation 0 0 1  0
              center 0 0 0
              children 
                DEF o3 Group {
                  children 
                    DEF o4 Group {
                      children 
                        DEF o5 Transform {
                          translation 0 0 0
                          rotation 0 0 1  0
                          scale 1 1 1
                          scaleOrientation 0 0 1  0
                          center 0 0 0

                        }

                    }

                }

            }

        },
          
        DEF o6 Group {
          children 
            DEF o7 Transform {
              translation 2e-015 -0 -9.5
              rotation 1 0 0  3.1415927
              scale 1 1 1
              scaleOrientation 0 0 1  0
              center 0 0 0

            }

        },
          
        DEF o8 Group {
          children 
            DEF o9 Transform {
              translation 0 0 0
              rotation 0 0 1  0
              scale 1 1 1
              scaleOrientation 0 0 1  0
              center 0 0 0

            }

        },
          
        DEF o10 Group {
          children 
            DEF o11 Transform {
              translation 0 0 0
              rotation 0 0 1  0
              scale 1 1 1
              scaleOrientation 0 0 1  0
              center 0 0 0
              children 
                DEF o12 Group {
                  children [ 
                    DEF o13 Group {
                      children 
                        DEF o14 Shape {
                          appearance 
                          Appearance {
                            material 
                            Material {
                              emissiveColor 0.098039217 0.098039217 0.098039217

                            }

                          }
                          geometry 
                          PointSet {
                            coord 
                            DEF o15 Coordinate {
                              point [ -2e-015 -17.5 -7,
                                  1.5 -17.5 -7,
                                  1.5 -12.1 -7,
                                  -1e-015 -12.1 -7,
                                  -2e-015 -17.5 -7,
                                  1.5 -17.5 -7,
                                  1.5 -17.5 7,
                                  -4.9999999e-015 -17.5 7,
                                  -1e-015 -12.1 -7,
                                  1.5 -12.1 -7,
                                  1.5 -12.1 -9.5,
                                  -1e-015 -12.1 -9.5,
                                  0 -12.1 -8,
                                  -2e-015 -17.5 -7,
                                  -4.9999999e-015 -17.5 7,
                                  -1e-015 -12.1 -7,
                                  0 -12.1 -8,
                                  0 -6.0999999 -8,
                                  0 -6.0999999 -7,
                                  4.9999999e-015 17.5 -7,
                                  2e-015 17.5 7,
                                  2.9999999e-015 14.75 -2.9999999e-015,
                                  0 14.699148 0.41880241,
                                  0 14.549548 0.81326556,
                                  0 14.309894 1.1604646,
                                  0 13.994113 1.4402218,
                                  0 13.620559 1.6362784,
                                  0 13.210939 1.7372406,
                                  0 12.789061 1.7372406,
                                  0 12.379441 1.6362784,
                                  0 12.005887 1.4402218,
                                  0 11.690106 1.1604646,
                                  0 11.450452 0.81326556,
                                  0 11.300852 0.41880241,
                                  0 11.25 1.7686254e-015,
                                  0 11.300852 -0.41880241,
                                  0 11.450452 -0.81326556,
                                  0 11.690106 -1.1604646,
                                  0 12.005887 -1.4402218,
                                  0 12.379441 -1.6362784,
                                  0 12.789061 -1.7372406,
                                  0 13.210939 -1.7372406,
                                  0 13.620559 -1.6362784,
                                  0 13.994113 -1.4402218,
                                  0 14.309894 -1.1604646,
                                  0 14.549548 -0.81326556,
                                  0 14.699148 -0.41880241,
                                  -2e-015 -11.25 2e-015,
                                  0 -11.300852 0.41880241,
                                  0 -11.450452 0.81326556,
                                  0 -11.690106 1.1604646,
                                  0 -12.005887 1.4402218,
                                  0 -12.379441 1.6362784,
                                  0 -12.789061 1.7372406,
                                  0 -13.210939 1.7372406,
                                  0 -13.620559 1.6362784,
                                  0 -13.994113 1.4402218,
                                  0 -14.309894 1.1604646,
                                  0 -14.549548 0.81326556,
                                  0 -14.699148 0.41880241,
                                  0 -14.75 1.7686254e-015,
                                  0 -14.699148 -0.41880241,
                                  0 -14.549548 -0.81326556,
                                  0 -14.309894 -1.1604646,
                                  0 -13.994113 -1.4402218,
                                  0 -13.620559 -1.6362784,
                                  0 -13.210939 -1.7372406,
                                  0 -12.789061 -1.7372406,
                                  0 -12.379441 -1.6362784,
                                  0 -12.005887 -1.4402218,
                                  0 -11.690106 -1.1604646,
                                  0 -11.450452 -0.81326556,
                                  0 -11.300852 -0.41880241,
                                  1.5 -12.1 -7,
                                  1.5 -12.1 -9.5,
                                  1.5 -6.0999999 -9.5,
                                  1.5 -6.0999999 -7,
                                  1.5 17.5 -7,
                                  1.5 17.5 7,
                                  1.5 -17.5 7,
                                  1.5 -17.5 -7,
                                  1.5 14.75 -2.9999999e-015,
                                  1.5 14.699148 0.41880241,
                                  1.5 14.549548 0.81326556,
                                  1.5 14.309894 1.1604646,
                                  1.5 13.994113 1.4402218,
                                  1.5 13.620559 1.6362784,
                                  1.5 13.210939 1.7372406,
                                  1.5 12.789061 1.7372406,
                                  1.5 12.379441 1.6362784,
                                  1.5 12.005887 1.4402218,
                                  1.5 11.690106 1.1604646,
                                  1.5 11.450452 0.81326556,
                                  1.5 11.300852 0.41880241,
                                  1.5 11.25 1.7686254e-015,
                                  1.5 11.300852 -0.41880241,
                                  1.5 11.450452 -0.81326556,
                                  1.5 11.690106 -1.1604646,
                                  1.5 12.005887 -1.4402218,
                                  1.5 12.379441 -1.6362784,
                                  1.5 12.789061 -1.7372406,
                                  1.5 13.210939 -1.7372406,
                                  1.5 13.620559 -1.6362784,
                                  1.5 13.994113 -1.4402218,
                                  1.5 14.309894 -1.1604646,
                                  1.5 14.549548 -0.81326556,
                                  1.5 14.699148 -0.41880241,
                                  1.5 -11.25 2e-015,
                                  1.5 -11.300852 0.41880241,
                                  1.5 -11.450452 0.81326556,
                                  1.5 -11.690106 1.1604646,
                                  1.5 -12.005887 1.4402218,
                                  1.5 -12.379441 1.6362784,
                                  1.5 -12.789061 1.7372406,
                                  1.5 -13.210939 1.7372406,
                                  1.5 -13.620559 1.6362784,
                                  1.5 -13.994113 1.4402218,
                                  1.5 -14.309894 1.1604646,
                                  1.5 -14.549548 0.81326556,
                                  1.5 -14.699148 0.41880241,
                                  1.5 -14.75 1.7686254e-015,
                                  1.5 -14.699148 -0.41880241,
                                  1.5 -14.549548 -0.81326556,
                                  1.5 -14.309894 -1.1604646,
                                  1.5 -13.994113 -1.4402218,
                                  1.5 -13.620559 -1.6362784,
                                  1.5 -13.210939 -1.7372406,
                                  1.5 -12.789061 -1.7372406,
                                  1.5 -12.379441 -1.6362784,
                                  1.5 -12.005887 -1.4402218,
                                  1.5 -11.690106 -1.1604646,
                                  1.5 -11.450452 -0.81326556,
                                  1.5 -11.300852 -0.41880241,
                                  -4.9999999e-015 -17.5 7,
                                  1.5 -17.5 7,
                                  1.5 17.5 7,
                                  2e-015 17.5 7,
                                  -1e-015 -12.1 -9.5,
                                  1.5 -12.1 -9.5,
                                  1.5 -6.0999999 -9.5,
                                  1e-015 -6.0999999 -9.5,
                                  0 -12.1 -8,
                                  -4.9000001 -12.1 -8,
                                  -4.9000001 -12.1 -9.5,
                                  -3.4000001 -12.1 -9.5,
                                  -1e-015 -12.1 -9.5,
                                  2e-015 17.5 7,
                                  1.5 17.5 7,
                                  1.5 17.5 -7,
                                  4.9999999e-015 17.5 -7,
                                  4.9999999e-015 17.5 -7,
                                  1.5 17.5 -7,
                                  1.5 -6.0999999 -7,
                                  0 -6.0999999 -7,
                                  0 -6.0999999 -7,
                                  1.5 -6.0999999 -7,
                                  1.5 -6.0999999 -9.5,
                                  1e-015 -6.0999999 -9.5,
                                  0 -6.0999999 -8,
                                  0 -6.0999999 -8,
                                  -4.9000001 -6.0999999 -8,
                                  -4.9000001 -12.1 -8,
                                  0 -12.1 -8,
                                  2.9999999e-015 14.75 -2.9999999e-015,
                                  1.5 14.75 -2.9999999e-015,
                                  1.5 14.699148 0.41880241,
                                  1.5 14.549548 0.81326556,
                                  1.5 14.309894 1.1604646,
                                  1.5 13.994113 1.4402218,
                                  1.5 13.620559 1.6362784,
                                  1.5 13.210939 1.7372406,
                                  1.5 12.789061 1.7372406,
                                  1.5 12.379441 1.6362784,
                                  1.5 12.005887 1.4402218,
                                  1.5 11.690106 1.1604646,
                                  1.5 11.450452 0.81326556,
                                  1.5 11.300852 0.41880241,
                                  1.5 11.25 1.7686254e-015,
                                  1.5 11.300852 -0.41880241,
                                  1.5 11.450452 -0.81326556,
                                  1.5 11.690106 -1.1604646,
                                  1.5 12.005887 -1.4402218,
                                  1.5 12.379441 -1.6362784,
                                  1.5 12.789061 -1.7372406,
                                  1.5 13.210939 -1.7372406,
                                  1.5 13.620559 -1.6362784,
                                  1.5 13.994113 -1.4402218,
                                  1.5 14.309894 -1.1604646,
                                  1.5 14.549548 -0.81326556,
                                  1.5 14.699148 -0.41880241,
                                  1.5 14.75 -2.9999999e-015,
                                  2.9999999e-015 14.75 -2.9999999e-015,
                                  0 14.699148 0.41880241,
                                  0 14.549548 0.81326556,
                                  0 14.309894 1.1604646,
                                  0 13.994113 1.4402218,
                                  0 13.620559 1.6362784,
                                  0 13.210939 1.7372406,
                                  0 12.789061 1.7372406,
                                  0 12.379441 1.6362784,
                                  0 12.005887 1.4402218,
                                  0 11.690106 1.1604646,
                                  0 11.450452 0.81326556,
                                  0 11.300852 0.41880241,
                                  0 11.25 1.7686254e-015,
                                  0 11.300852 -0.41880241,
                                  0 11.450452 -0.81326556,
                                  0 11.690106 -1.1604646,
                                  0 12.005887 -1.4402218,
                                  0 12.379441 -1.6362784,
                                  0 12.789061 -1.7372406,
                                  0 13.210939 -1.7372406,
                                  0 13.620559 -1.6362784,
                                  0 13.994113 -1.4402218,
                                  0 14.309894 -1.1604646,
                                  0 14.549548 -0.81326556,
                                  0 14.699148 -0.41880241,
                                  -2e-015 -11.25 2e-015,
                                  1.5 -11.25 2e-015,
                                  1.5 -11.300852 0.41880241,
                                  1.5 -11.450452 0.81326556,
                                  1.5 -11.690106 1.1604646,
                                  1.5 -12.005887 1.4402218,
                                  1.5 -12.379441 1.6362784,
                                  1.5 -12.789061 1.7372406,
                                  1.5 -13.210939 1.7372406,
                                  1.5 -13.620559 1.6362784,
                                  1.5 -13.994113 1.4402218,
                                  1.5 -14.309894 1.1604646,
                                  1.5 -14.549548 0.81326556,
                                  1.5 -14.699148 0.41880241,
                                  1.5 -14.75 1.7686254e-015,
                                  1.5 -14.699148 -0.41880241,
                                  1.5 -14.549548 -0.81326556,
                                  1.5 -14.309894 -1.1604646,
                                  1.5 -13.994113 -1.4402218,
                                  1.5 -13.620559 -1.6362784,
                                  1.5 -13.210939 -1.7372406,
                                  1.5 -12.789061 -1.7372406,
                                  1.5 -12.379441 -1.6362784,
                                  1.5 -12.005887 -1.4402218,
                                  1.5 -11.690106 -1.1604646,
                                  1.5 -11.450452 -0.81326556,
                                  1.5 -11.300852 -0.41880241,
                                  1.5 -11.25 2e-015,
                                  -2e-015 -11.25 2e-015,
                                  0 -11.300852 0.41880241,
                                  0 -11.450452 0.81326556,
                                  0 -11.690106 1.1604646,
                                  0 -12.005887 1.4402218,
                                  0 -12.379441 1.6362784,
                                  0 -12.789061 1.7372406,
                                  0 -13.210939 1.7372406,
                                  0 -13.620559 1.6362784,
                                  0 -13.994113 1.4402218,
                                  0 -14.309894 1.1604646,
                                  0 -14.549548 0.81326556,
                                  0 -14.699148 0.41880241,
                                  0 -14.75 1.7686254e-015,
                                  0 -14.699148 -0.41880241,
                                  0 -14.549548 -0.81326556,
                                  0 -14.309894 -1.1604646,
                                  0 -13.994113 -1.4402218,
                                  0 -13.620559 -1.6362784,
                                  0 -13.210939 -1.7372406,
                                  0 -12.789061 -1.7372406,
                                  0 -12.379441 -1.6362784,
                                  0 -12.005887 -1.4402218,
                                  0 -11.690106 -1.1604646,
                                  0 -11.450452 -0.81326556,
                                  0 -11.300852 -0.41880241,
                                  -1e-015 -12.1 -9.5,
                                  1e-015 -6.0999999 -9.5,
                                  -3.4000001 -12.1 -9.5,
                                  -3.4000001 -6.0999999 -9.5,
                                  -3.4000001 -12.1 -9.5,
                                  -4.9000001 -12.1 -9.5,
                                  -4.9000001 -12.1 -11.5,
                                  -3.4000001 -12.1 -11.5,
                                  -4.9000001 -6.0999999 -8,
                                  -4.9000001 -12.1 -8,
                                  -4.9000001 -12.1 -9.5,
                                  -4.9000001 -6.0999999 -9.5,
                                  0 -6.0999999 -8,
                                  -4.9000001 -6.0999999 -8,
                                  -4.9000001 -6.0999999 -9.5,
                                  -3.4000001 -6.0999999 -9.5,
                                  1e-015 -6.0999999 -9.5,
                                  -3.4000001 -12.1 -9.5,
                                  -3.4000001 -6.0999999 -9.5,
                                  -3.4000001 -12.1 -11.5,
                                  -3.4000001 -6.0999999 -11.5,
                                  -3.4000001 -12.1 -11.5,
                                  -4.9000001 -12.1 -11.5,
                                  -4.9000001 -12.1 -13,
                                  -3.4000001 -12.1 -13,
                                  -4.9000001 -12.1 -9.5,
                                  -4.9000001 -6.0999999 -9.5,
                                  -4.9000001 -12.1 -11.5,
                                  -4.9000001 -6.0999999 -11.5,
                                  -3.4000001 -6.0999999 -9.5,
                                  -4.9000001 -6.0999999 -9.5,
                                  -4.9000001 -6.0999999 -11.5,
                                  -3.4000001 -6.0999999 -11.5,
                                  -3.4000001 -12.1 -11.5,
                                  -3.4000001 -6.0999999 -11.5,
                                  -3.4000001 -12.1 -13,
                                  -3.4000001 -6.0999999 -13,
                                  -4.9000001 -12.1 -13,
                                  -3.4000001 -12.1 -13,
                                  -3.4000001 -6.0999999 -13,
                                  -4.9000001 -6.0999999 -13,
                                  -4.9000001 -12.1 -11.5,
                                  -4.9000001 -12.1 -13,
                                  -6.4358983 -12.1 -11.5,
                                  -6.4358983 -12.1 -13,
                                  -9.8999767 -6.0999999 -11.5,
                                  -4.9000001 -6.0999999 -11.5,
                                  -6.4358983 -12.1 -11.5,
                                  -6.9274216 -12.776524 -11.5,
                                  -7.548861 -13.336069 -11.5,
                                  -8.273057 -13.754183 -11.5,
                                  -9.0683575 -14.012591 -11.5,
                                  -9.9000053 -14.1 -11.5,
                                  -10.731653 -14.012589 -11.5,
                                  -11.526954 -13.754179 -11.5,
                                  -12.251148 -13.336062 -11.5,
                                  -12.872586 -12.776515 -11.5,
                                  -13.364107 -12.09999 -11.5,
                                  -13.70423 -11.336056 -11.5,
                                  -13.878089 -10.5181 -11.5,
                                  -13.878086 -9.6818714 -11.5,
                                  -13.704221 -8.8639164 -11.5,
                                  -13.364093 -8.0999851 -11.5,
                                  -12.872567 -7.4234638 -11.5,
                                  -12.251125 -6.8639207 -11.5,
                                  -11.526928 -6.4458098 -11.5,
                                  -10.731626 -6.1874051 -11.5,
                                  -4.9000001 -12.1 -11.5,
                                  -11.6 -10.1 -11.5,
                                  -11.550601 -10.506837 -11.5,
                                  -11.405275 -10.890029 -11.5,
                                  -11.172468 -11.227308 -11.5,
                                  -10.86571 -11.499073 -11.5,
                                  -10.502829 -11.689528 -11.5,
                                  -10.104913 -11.787605 -11.5,
                                  -9.6950874 -11.787605 -11.5,
                                  -9.2971716 -11.689528 -11.5,
                                  -8.9342899 -11.499073 -11.5,
                                  -8.627532 -11.227308 -11.5,
                                  -8.3947248 -10.890029 -11.5,
                                  -8.2493992 -10.506837 -11.5,
                                  -8.1999998 -10.1 -11.5,
                                  -8.2493992 -9.6931629 -11.5,
                                  -8.3947248 -9.3099709 -11.5,
                                  -8.627532 -8.9726915 -11.5,
                                  -8.9342899 -8.7009277 -11.5,
                                  -9.2971716 -8.5104723 -11.5,
                                  -9.6950874 -8.4123945 -11.5,
                                  -10.104913 -8.4123945 -11.5,
                                  -10.502829 -8.5104723 -11.5,
                                  -10.86571 -8.7009277 -11.5,
                                  -11.172468 -8.9726915 -11.5,
                                  -11.405275 -9.3099709 -11.5,
                                  -11.550601 -9.6931629 -11.5,
                                  -4.9000001 -6.0999999 -11.5,
                                  -3.4000001 -6.0999999 -11.5,
                                  -4.9000001 -6.0999999 -13,
                                  -3.4000001 -6.0999999 -13,
                                  -9.8999767 -6.0999999 -13,
                                  -4.9000001 -6.0999999 -13,
                                  -6.4358983 -12.1 -13,
                                  -6.9274216 -12.776524 -13,
                                  -7.548861 -13.336069 -13,
                                  -8.273057 -13.754183 -13,
                                  -9.0683575 -14.012591 -13,
                                  -9.9000053 -14.1 -13,
                                  -10.731653 -14.012589 -13,
                                  -11.526954 -13.754179 -13,
                                  -12.251148 -13.336062 -13,
                                  -12.872586 -12.776515 -13,
                                  -13.364107 -12.09999 -13,
                                  -13.70423 -11.336056 -13,
                                  -13.878089 -10.5181 -13,
                                  -13.878086 -9.6818714 -13,
                                  -13.704221 -8.8639164 -13,
                                  -13.364093 -8.0999851 -13,
                                  -12.872567 -7.4234638 -13,
                                  -12.251125 -6.8639207 -13,
                                  -11.526928 -6.4458098 -13,
                                  -10.731626 -6.1874051 -13,
                                  -4.9000001 -12.1 -13,
                                  -11.6 -10.1 -13,
                                  -11.550601 -9.6931629 -13,
                                  -11.405275 -9.3099709 -13,
                                  -11.172468 -8.9726915 -13,
                                  -10.86571 -8.7009277 -13,
                                  -10.502829 -8.5104723 -13,
                                  -10.104913 -8.4123945 -13,
                                  -9.6950874 -8.4123945 -13,
                                  -9.2971716 -8.5104723 -13,
                                  -8.9342899 -8.7009277 -13,
                                  -8.627532 -8.9726915 -13,
                                  -8.3947248 -9.3099709 -13,
                                  -8.2493992 -9.6931629 -13,
                                  -8.1999998 -10.1 -13,
                                  -8.2493992 -10.506837 -13,
                                  -8.3947248 -10.890029 -13,
                                  -8.627532 -11.227308 -13,
                                  -8.9342899 -11.499073 -13,
                                  -9.2971716 -11.689528 -13,
                                  -9.6950874 -11.787605 -13,
                                  -10.104913 -11.787605 -13,
                                  -10.502829 -11.689528 -13,
                                  -10.86571 -11.499073 -13,
                                  -11.172468 -11.227308 -13,
                                  -11.405275 -10.890029 -13,
                                  -11.550601 -10.506837 -13,
                                  -6.4358983 -12.1 -13,
                                  -6.4358983 -12.1 -11.5,
                                  -6.9274216 -12.776524 -11.5,
                                  -7.548861 -13.336069 -11.5,
                                  -8.273057 -13.754183 -11.5,
                                  -9.0683575 -14.012591 -11.5,
                                  -9.9000053 -14.1 -11.5,
                                  -10.731653 -14.012589 -11.5,
                                  -11.526954 -13.754179 -11.5,
                                  -12.251148 -13.336062 -11.5,
                                  -12.872586 -12.776515 -11.5,
                                  -13.364107 -12.09999 -11.5,
                                  -13.70423 -11.336056 -11.5,
                                  -13.878089 -10.5181 -11.5,
                                  -13.878086 -9.6818714 -11.5,
                                  -13.704221 -8.8639164 -11.5,
                                  -13.364093 -8.0999851 -11.5,
                                  -12.872567 -7.4234638 -11.5,
                                  -12.251125 -6.8639207 -11.5,
                                  -11.526928 -6.4458098 -11.5,
                                  -10.731626 -6.1874051 -11.5,
                                  -9.8999767 -6.0999999 -11.5,
                                  -9.8999767 -6.0999999 -13,
                                  -6.9274216 -12.776524 -13,
                                  -7.548861 -13.336069 -13,
                                  -8.273057 -13.754183 -13,
                                  -9.0683575 -14.012591 -13,
                                  -9.9000053 -14.1 -13,
                                  -10.731653 -14.012589 -13,
                                  -11.526954 -13.754179 -13,
                                  -12.251148 -13.336062 -13,
                                  -12.872586 -12.776515 -13,
                                  -13.364107 -12.09999 -13,
                                  -13.70423 -11.336056 -13,
                                  -13.878089 -10.5181 -13,
                                  -13.878086 -9.6818714 -13,
                                  -13.704221 -8.8639164 -13,
                                  -13.364093 -8.0999851 -13,
                                  -12.872567 -7.4234638 -13,
                                  -12.251125 -6.8639207 -13,
                                  -11.526928 -6.4458098 -13,
                                  -10.731626 -6.1874051 -13,
                                  -9.8999767 -6.0999999 -13,
                                  -4.9000001 -6.0999999 -13,
                                  -9.8999767 -6.0999999 -11.5,
                                  -4.9000001 -6.0999999 -11.5,
                                  -11.6 -10.1 -13,
                                  -11.6 -10.1 -11.5,
                                  -11.550601 -9.6931629 -13,
                                  -11.405275 -9.3099709 -13,
                                  -11.172468 -8.9726915 -13,
                                  -10.86571 -8.7009277 -13,
                                  -10.502829 -8.5104723 -13,
                                  -10.104913 -8.4123945 -13,
                                  -9.6950874 -8.4123945 -13,
                                  -9.2971716 -8.5104723 -13,
                                  -8.9342899 -8.7009277 -13,
                                  -8.627532 -8.9726915 -13,
                                  -8.3947248 -9.3099709 -13,
                                  -8.2493992 -9.6931629 -13,
                                  -8.1999998 -10.1 -13,
                                  -8.2493992 -10.506837 -13,
                                  -8.3947248 -10.890029 -13,
                                  -8.627532 -11.227308 -13,
                                  -8.9342899 -11.499073 -13,
                                  -9.2971716 -11.689528 -13,
                                  -9.6950874 -11.787605 -13,
                                  -10.104913 -11.787605 -13,
                                  -10.502829 -11.689528 -13,
                                  -10.86571 -11.499073 -13,
                                  -11.172468 -11.227308 -13,
                                  -11.405275 -10.890029 -13,
                                  -11.550601 -10.506837 -13,
                                  -11.6 -10.1 -13,
                                  -11.6 -10.1 -11.5,
                                  -11.550601 -10.506837 -11.5,
                                  -11.405275 -10.890029 -11.5,
                                  -11.172468 -11.227308 -11.5,
                                  -10.86571 -11.499073 -11.5,
                                  -10.502829 -11.689528 -11.5,
                                  -10.104913 -11.787605 -11.5,
                                  -9.6950874 -11.787605 -11.5,
                                  -9.2971716 -11.689528 -11.5,
                                  -8.9342899 -11.499073 -11.5,
                                  -8.627532 -11.227308 -11.5,
                                  -8.3947248 -10.890029 -11.5,
                                  -8.2493992 -10.506837 -11.5,
                                  -8.1999998 -10.1 -11.5,
                                  -8.2493992 -9.6931629 -11.5,
                                  -8.3947248 -9.3099709 -11.5,
                                  -8.627532 -8.9726915 -11.5,
                                  -8.9342899 -8.7009277 -11.5,
                                  -9.2971716 -8.5104723 -11.5,
                                  -9.6950874 -8.4123945 -11.5,
                                  -10.104913 -8.4123945 -11.5,
                                  -10.502829 -8.5104723 -11.5,
                                  -10.86571 -8.7009277 -11.5,
                                  -11.172468 -8.9726915 -11.5,
                                  -11.405275 -9.3099709 -11.5,
                                  -11.550601 -9.6931629 -11.5,
                                  -2e-015 -17.5 -7,
                                  1.5 -17.5 -7,
                                  -1e-015 -12.1 -7,
                                  1.5 -12.1 -7,
                                  -4.9999999e-015 -17.5 7,
                                  1.5 -17.5 7,
                                  -1e-015 -12.1 -9.5,
                                  1.5 -12.1 -9.5,
                                  0 -12.1 -8,
                                  2e-015 17.5 7,
                                  4.9999999e-015 17.5 -7,
                                  0 -6.0999999 -7,
                                  0 -6.0999999 -8,
                                  2.9999999e-015 14.75 -2.9999999e-015,
                                  -2e-015 -11.25 2e-015,
                                  1.5 17.5 7,
                                  1.5 17.5 -7,
                                  1.5 -6.0999999 -7,
                                  1.5 -6.0999999 -9.5,
                                  1.5 14.75 -2.9999999e-015,
                                  1.5 -11.25 2e-015,
                                  1e-015 -6.0999999 -9.5,
                                  -4.9000001 -12.1 -8,
                                  -3.4000001 -12.1 -9.5,
                                  -4.9000001 -12.1 -9.5,
                                  -4.9000001 -6.0999999 -8,
                                  -3.4000001 -6.0999999 -9.5,
                                  -3.4000001 -12.1 -11.5,
                                  -4.9000001 -12.1 -11.5,
                                  -4.9000001 -6.0999999 -9.5,
                                  -3.4000001 -6.0999999 -11.5,
                                  -3.4000001 -12.1 -13,
                                  -4.9000001 -12.1 -13,
                                  -4.9000001 -6.0999999 -11.5,
                                  -3.4000001 -6.0999999 -13,
                                  -4.9000001 -6.0999999 -13,
                                  -6.4358983 -12.1 -13,
                                  -6.4358983 -12.1 -11.5,
                                  -9.8999767 -6.0999999 -11.5,
                                  -11.6 -10.1 -11.5,
                                  -9.8999767 -6.0999999 -13,
                                  -11.6 -10.1 -13 ]

                            }

                          }

                        }

                    },
                      
                    DEF o16 Group {
                      children 
                        DEF o17 Shape {
                          appearance 
                          Appearance {
                            material 
                            Material {
                              diffuseColor 0.098039217 0.098039217 0.098039217
                              shininess 1

                            }

                          }
                          geometry 
                          IndexedLineSet {
                            coord 
                            USE o15
                            coordIndex [ 0, 1, -1, 3, 2, -1, 0, 3,
                                -1, 1, 2, -1, 7, 6, -1, 4,
                                7, -1, 5, 6, -1, 11, 10, -1,
                                8, 12, -1, 12, 11, -1, 9, 10,
                                -1, 14, 20, -1, 20, 19, -1, 19,
                                18, -1, 18, 17, -1, 17, 16, -1,
                                21, 22, 23, 24, 25, 26, 27, 28,
                                29, 30, 31, 32, 33, 34, 35, 36,
                                37, 38, 39, 40, 41, 42, 43, 44,
                                45, 46, 21, -1, 47, 48, 49, 50,
                                51, 52, 53, 54, 55, 56, 57, 58,
                                59, 60, 61, 62, 63, 64, 65, 66,
                                67, 68, 69, 70, 71, 72, 47, -1,
                                79, 78, -1, 78, 77, -1, 77, 76,
                                -1, 76, 75, -1, 74, 75, -1, 81,
                                82, 83, 84, 85, 86, 87, 88, 89,
                                90, 91, 92, 93, 94, 95, 96, 97,
                                98, 99, 100, 101, 102, 103, 104, 105,
                                106, 81, -1, 107, 108, 109, 110, 111,
                                112, 113, 114, 115, 116, 117, 118, 119,
                                120, 121, 122, 123, 124, 125, 126, 127,
                                128, 129, 130, 131, 132, 107, -1, 136,
                                135, -1, 140, 139, -1, 137, 140, -1,
                                141, 142, -1, 145, 144, -1, 144, 143,
                                -1, 142, 143, -1, 149, 148, -1, 153,
                                152, -1, 158, 157, -1, 159, 160, -1,
                                160, 161, -1, 163, 164, -1, 217, 218,
                                -1, 272, 274, -1, 273, 274, -1, 275,
                                278, -1, 278, 277, -1, 276, 277, -1,
                                281, 282, -1, 279, 282, -1, 286, 285,
                                -1, 289, 291, -1, 290, 291, -1, 292,
                                295, -1, 294, 295, -1, 293, 294, -1,
                                297, 299, -1, 299, 298, -1, 302, 303,
                                -1, 305, 307, -1, 306, 307, -1, 311,
                                310, -1, 308, 311, -1, 313, 315, -1,
                                315, 314, -1, 312, 314, -1, 316, 317,
                                -1, 318, 319, 320, 321, 322, 323, 324,
                                325, 326, 327, 328, 329, 330, 331, 332,
                                333, 334, 335, 336, 337, 316, -1, 339,
                                340, 341, 342, 343, 344, 345, 346, 347,
                                348, 349, 350, 351, 352, 353, 354, 355,
                                356, 357, 358, 359, 360, 361, 362, 363,
                                364, 339, -1, 365, 367, -1, 369, 370,
                                -1, 371, 372, 373, 374, 375, 376, 377,
                                378, 379, 380, 381, 382, 383, 384, 385,
                                386, 387, 388, 389, 390, 369, -1, 392,
                                393, 394, 395, 396, 397, 398, 399, 400,
                                401, 402, 403, 404, 405, 406, 407, 408,
                                409, 410, 411, 412, 413, 414, 415, 416,
                                417, 392, -1, 440, 439, -1, 491, 492,
                                -1 ]

                          }

                        }

                    },
                      
                    DEF o18 Group {
                      children 
                        DEF o19 Shape {
                          appearance 
                          Appearance {
                            material 
                            Material {

                            }

                          }
                          geometry 
                          IndexedFaceSet {
                            coord 
                            USE o15
                            coordIndex [ 0, 2, 1, -1, 0, 3, 2, -1,
                                7, 4, 5, -1, 7, 5, 6, -1,
                                8, 12, 9, -1, 9, 12, 10, -1,
                                12, 11, 10, -1, 19, 43, 44, -1,
                                44, 45, 19, -1, 19, 42, 43, -1,
                                45, 46, 19, -1, 19, 41, 42, -1,
                                46, 21, 19, -1, 19, 40, 41, -1,
                                19, 39, 40, -1, 19, 38, 39, -1,
                                22, 20, 21, -1, 23, 20, 22, -1,
                                24, 20, 23, -1, 25, 20, 24, -1,
                                26, 20, 25, -1, 27, 20, 26, -1,
                                28, 20, 27, -1, 29, 20, 28, -1,
                                30, 20, 29, -1, 21, 20, 19, -1,
                                34, 18, 33, -1, 35, 18, 34, -1,
                                36, 18, 35, -1, 37, 18, 36, -1,
                                17, 16, 18, -1, 16, 15, 18, -1,
                                15, 70, 18, -1, 15, 69, 70, -1,
                                70, 71, 18, -1, 15, 68, 69, -1,
                                71, 72, 18, -1, 15, 67, 68, -1,
                                72, 47, 18, -1, 15, 66, 67, -1,
                                18, 48, 33, -1, 47, 48, 18, -1,
                                13, 65, 15, -1, 15, 65, 66, -1,
                                33, 49, 32, -1, 48, 49, 33, -1,
                                13, 64, 65, -1, 32, 50, 31, -1,
                                49, 50, 32, -1, 13, 63, 64, -1,
                                30, 51, 20, -1, 31, 51, 30, -1,
                                50, 51, 31, -1, 13, 62, 63, -1,
                                13, 61, 62, -1, 13, 60, 61, -1,
                                52, 14, 51, -1, 53, 14, 52, -1,
                                54, 14, 53, -1, 55, 14, 54, -1,
                                56, 14, 55, -1, 57, 14, 56, -1,
                                58, 14, 57, -1, 59, 14, 58, -1,
                                60, 14, 59, -1, 51, 14, 20, -1,
                                13, 14, 60, -1, 19, 18, 38, -1,
                                38, 18, 37, -1, 103, 77, 104, -1,
                                105, 104, 77, -1, 102, 77, 103, -1,
                                106, 105, 77, -1, 101, 77, 102, -1,
                                81, 106, 77, -1, 100, 77, 101, -1,
                                99, 77, 100, -1, 98, 77, 99, -1,
                                78, 82, 81, -1, 78, 83, 82, -1,
                                78, 84, 83, -1, 78, 85, 84, -1,
                                78, 86, 85, -1, 78, 87, 86, -1,
                                78, 88, 87, -1, 78, 89, 88, -1,
                                78, 90, 89, -1, 78, 81, 77, -1,
                                76, 94, 93, -1, 76, 95, 94, -1,
                                76, 96, 95, -1, 76, 97, 96, -1,
                                73, 74, 75, -1, 73, 75, 76, -1,
                                130, 73, 76, -1, 129, 73, 130, -1,
                                131, 130, 76, -1, 128, 73, 129, -1,
                                132, 131, 76, -1, 127, 73, 128, -1,
                                107, 132, 76, -1, 126, 73, 127, -1,
                                108, 107, 76, -1, 108, 76, 93, -1,
                                125, 80, 73, -1, 125, 73, 126, -1,
                                109, 93, 92, -1, 109, 108, 93, -1,
                                124, 80, 125, -1, 110, 92, 91, -1,
                                110, 109, 92, -1, 123, 80, 124, -1,
                                111, 91, 90, -1, 111, 110, 91, -1,
                                111, 90, 78, -1, 122, 80, 123, -1,
                                121, 80, 122, -1, 120, 80, 121, -1,
                                79, 111, 78, -1, 79, 112, 111, -1,
                                79, 113, 112, -1, 79, 114, 113, -1,
                                79, 115, 114, -1, 79, 80, 120, -1,
                                79, 116, 115, -1, 79, 117, 116, -1,
                                79, 118, 117, -1, 79, 119, 118, -1,
                                79, 120, 119, -1, 76, 77, 98, -1,
                                76, 98, 97, -1, 136, 133, 134, -1,
                                136, 134, 135, -1, 137, 140, 138, -1,
                                138, 140, 139, -1, 144, 142, 143, -1,
                                141, 142, 144, -1, 145, 141, 144, -1,
                                149, 146, 147, -1, 149, 147, 148, -1,
                                153, 150, 151, -1, 153, 151, 152, -1,
                                158, 154, 155, -1, 158, 155, 156, -1,
                                157, 158, 156, -1, 162, 159, 160, -1,
                                162, 160, 161, -1, 192, 163, 164, -1,
                                192, 164, 165, -1, 193, 165, 166, -1,
                                193, 192, 165, -1, 194, 166, 167, -1,
                                194, 193, 166, -1, 195, 167, 168, -1,
                                195, 168, 169, -1, 195, 194, 167, -1,
                                196, 169, 170, -1, 196, 195, 169, -1,
                                197, 196, 170, -1, 198, 170, 171, -1,
                                198, 197, 170, -1, 199, 171, 172, -1,
                                199, 198, 171, -1, 200, 172, 173, -1,
                                200, 199, 172, -1, 201, 173, 174, -1,
                                201, 200, 173, -1, 202, 201, 174, -1,
                                202, 174, 175, -1, 203, 202, 175, -1,
                                203, 175, 176, -1, 203, 176, 177, -1,
                                204, 203, 177, -1, 204, 177, 178, -1,
                                205, 204, 178, -1, 205, 178, 179, -1,
                                206, 205, 179, -1, 207, 179, 180, -1,
                                207, 180, 181, -1, 207, 206, 179, -1,
                                208, 207, 181, -1, 209, 181, 182, -1,
                                209, 208, 181, -1, 210, 182, 183, -1,
                                210, 209, 182, -1, 211, 183, 184, -1,
                                211, 210, 183, -1, 212, 184, 185, -1,
                                212, 211, 184, -1, 213, 185, 186, -1,
                                213, 186, 187, -1, 213, 212, 185, -1,
                                214, 213, 187, -1, 215, 187, 188, -1,
                                215, 188, 189, -1, 215, 214, 187, -1,
                                216, 215, 189, -1, 191, 189, 190, -1,
                                191, 216, 189, -1, 246, 217, 218, -1,
                                246, 218, 219, -1, 247, 219, 220, -1,
                                247, 246, 219, -1, 248, 220, 221, -1,
                                248, 247, 220, -1, 249, 221, 222, -1,
                                249, 222, 223, -1, 249, 248, 221, -1,
                                250, 223, 224, -1, 250, 249, 223, -1,
                                251, 250, 224, -1, 252, 224, 225, -1,
                                252, 251, 224, -1, 253, 225, 226, -1,
                                253, 252, 225, -1, 254, 226, 227, -1,
                                254, 253, 226, -1, 255, 227, 228, -1,
                                255, 254, 227, -1, 256, 255, 228, -1,
                                256, 228, 229, -1, 257, 256, 229, -1,
                                257, 229, 230, -1, 257, 230, 231, -1,
                                258, 257, 231, -1, 258, 231, 232, -1,
                                259, 258, 232, -1, 259, 232, 233, -1,
                                260, 259, 233, -1, 261, 233, 234, -1,
                                261, 234, 235, -1, 261, 260, 233, -1,
                                262, 261, 235, -1, 263, 235, 236, -1,
                                263, 262, 235, -1, 264, 236, 237, -1,
                                264, 263, 236, -1, 265, 237, 238, -1,
                                265, 264, 237, -1, 266, 238, 239, -1,
                                266, 265, 238, -1, 267, 239, 240, -1,
                                267, 240, 241, -1, 267, 266, 239, -1,
                                268, 267, 241, -1, 269, 241, 242, -1,
                                269, 242, 243, -1, 269, 268, 241, -1,
                                270, 269, 243, -1, 245, 243, 244, -1,
                                245, 270, 243, -1, 272, 271, 273, -1,
                                272, 273, 274, -1, 276, 277, 278, -1,
                                275, 276, 278, -1, 281, 280, 282, -1,
                                282, 280, 279, -1, 284, 286, 285, -1,
                                284, 283, 286, -1, 283, 287, 286, -1,
                                289, 288, 290, -1, 289, 290, 291, -1,
                                293, 294, 295, -1, 292, 293, 295, -1,
                                296, 299, 298, -1, 296, 297, 299, -1,
                                302, 301, 303, -1, 301, 300, 303, -1,
                                305, 304, 306, -1, 305, 306, 307, -1,
                                308, 310, 309, -1, 311, 310, 308, -1,
                                314, 313, 312, -1, 315, 313, 314, -1,
                                342, 327, 326, -1, 342, 328, 327, -1,
                                343, 326, 325, -1, 343, 342, 326, -1,
                                341, 329, 328, -1, 341, 328, 342, -1,
                                344, 325, 324, -1, 344, 343, 325, -1,
                                340, 330, 329, -1, 340, 329, 341, -1,
                                345, 324, 323, -1, 345, 344, 324, -1,
                                339, 331, 330, -1, 339, 330, 340, -1,
                                346, 323, 322, -1, 346, 345, 323, -1,
                                364, 332, 331, -1, 364, 331, 339, -1,
                                347, 322, 321, -1, 347, 346, 322, -1,
                                363, 333, 332, -1, 363, 332, 364, -1,
                                348, 321, 320, -1, 348, 347, 321, -1,
                                362, 334, 333, -1, 362, 333, 363, -1,
                                349, 348, 320, -1, 319, 349, 320, -1,
                                335, 362, 361, -1, 335, 334, 362, -1,
                                318, 349, 319, -1, 318, 350, 349, -1,
                                318, 351, 350, -1, 352, 351, 318, -1,
                                336, 335, 361, -1, 336, 361, 360, -1,
                                338, 352, 318, -1, 338, 353, 352, -1,
                                337, 336, 360, -1, 337, 360, 359, -1,
                                316, 357, 356, -1, 316, 358, 357, -1,
                                316, 359, 358, -1, 316, 337, 359, -1,
                                317, 353, 338, -1, 317, 354, 353, -1,
                                317, 355, 354, -1, 317, 356, 355, -1,
                                317, 316, 356, -1, 365, 368, 367, -1,
                                365, 366, 368, -1, 380, 415, 379, -1,
                                381, 415, 380, -1, 379, 414, 378, -1,
                                415, 414, 379, -1, 382, 416, 381, -1,
                                381, 416, 415, -1, 378, 413, 377, -1,
                                414, 413, 378, -1, 383, 417, 382, -1,
                                382, 417, 416, -1, 377, 412, 376, -1,
                                413, 412, 377, -1, 384, 392, 383, -1,
                                383, 392, 417, -1, 376, 411, 375, -1,
                                412, 411, 376, -1, 385, 393, 384, -1,
                                384, 393, 392, -1, 375, 410, 374, -1,
                                411, 410, 375, -1, 386, 394, 385, -1,
                                385, 394, 393, -1, 374, 409, 373, -1,
                                410, 409, 374, -1, 387, 395, 386, -1,
                                386, 395, 394, -1, 409, 408, 373, -1,
                                408, 372, 373, -1, 395, 388, 396, -1,
                                387, 388, 395, -1, 408, 371, 372, -1,
                                406, 371, 407, -1, 407, 371, 408, -1,
                                406, 405, 371, -1, 388, 389, 396, -1,
                                396, 389, 397, -1, 405, 391, 371, -1,
                                404, 391, 405, -1, 397, 390, 398, -1,
                                389, 390, 397, -1, 390, 369, 398, -1,
                                398, 369, 399, -1, 399, 369, 400, -1,
                                400, 369, 401, -1, 404, 370, 391, -1,
                                401, 370, 402, -1, 402, 370, 403, -1,
                                403, 370, 404, -1, 369, 370, 401, -1,
                                441, 418, 419, -1, 441, 419, 420, -1,
                                442, 420, 421, -1, 442, 441, 420, -1,
                                443, 421, 422, -1, 443, 442, 421, -1,
                                444, 422, 423, -1, 444, 443, 422, -1,
                                445, 423, 424, -1, 445, 444, 423, -1,
                                446, 424, 425, -1, 446, 445, 424, -1,
                                447, 425, 426, -1, 447, 426, 427, -1,
                                447, 446, 425, -1, 448, 447, 427, -1,
                                449, 427, 428, -1, 449, 448, 427, -1,
                                450, 428, 429, -1, 450, 449, 428, -1,
                                451, 429, 430, -1, 451, 430, 431, -1,
                                451, 450, 429, -1, 452, 451, 431, -1,
                                453, 431, 432, -1, 453, 432, 433, -1,
                                453, 452, 431, -1, 454, 453, 433, -1,
                                455, 454, 433, -1, 455, 433, 434, -1,
                                456, 455, 434, -1, 456, 434, 435, -1,
                                457, 456, 435, -1, 457, 435, 436, -1,
                                458, 436, 437, -1, 458, 457, 436, -1,
                                459, 458, 437, -1, 459, 437, 438, -1,
                                440, 438, 439, -1, 440, 459, 438, -1,
                                461, 460, 462, -1, 461, 462, 463, -1,
                                465, 464, 466, -1, 517, 466, 467, -1,
                                517, 465, 466, -1, 516, 467, 468, -1,
                                516, 517, 467, -1, 515, 468, 469, -1,
                                515, 516, 468, -1, 514, 469, 470, -1,
                                514, 515, 469, -1, 513, 470, 471, -1,
                                513, 514, 470, -1, 512, 471, 472, -1,
                                512, 513, 471, -1, 511, 472, 473, -1,
                                511, 512, 472, -1, 510, 473, 474, -1,
                                510, 511, 473, -1, 509, 474, 475, -1,
                                509, 510, 474, -1, 508, 475, 476, -1,
                                508, 509, 475, -1, 507, 508, 476, -1,
                                507, 476, 477, -1, 506, 507, 477, -1,
                                505, 506, 477, -1, 505, 477, 478, -1,
                                505, 478, 479, -1, 504, 505, 479, -1,
                                504, 479, 480, -1, 503, 480, 481, -1,
                                503, 504, 480, -1, 502, 481, 482, -1,
                                502, 503, 481, -1, 501, 482, 483, -1,
                                501, 502, 482, -1, 500, 501, 483, -1,
                                499, 483, 484, -1, 499, 484, 485, -1,
                                499, 500, 483, -1, 498, 485, 486, -1,
                                498, 499, 485, -1, 497, 486, 487, -1,
                                497, 498, 486, -1, 496, 487, 488, -1,
                                496, 497, 487, -1, 495, 496, 488, -1,
                                494, 488, 489, -1, 494, 495, 488, -1,
                                493, 489, 490, -1, 493, 490, 491, -1,
                                493, 494, 489, -1, 492, 493, 491, -1 ]
                            ccw TRUE
                            solid FALSE
                            convex TRUE
                            creaseAngle 0

                          }

                        }

                    } ]

                }

            }

        },
          
        DEF o20 Group {
          children 
            DEF o21 Transform {
              translation 0 0 0
              rotation 0 0 1  0
              scale 1 1 1
              scaleOrientation 0 0 1  0
              center 0 0 0

            }

        } ]

    }

}
